<svg width="1563" height="356" viewBox="0 0 1563 356" fill="none" xmlns="http://www.w3.org/2000/svg">
<path d="M1001.5 259C1022.5 259 1038.5 250.5 1051.75 235.25L1040.25 222.75C1029.75 234.25 1018 240.5 1002.25 240.5C971.25 240.5 951.75 214.75 951.75 173.5C951.75 132.75 972.25 107.5 1003 107.5C1017 107.5 1027.75 113.25 1036.5 122.25L1048 109.25C1038.25 98.5 1022.75 89 1002.75 89C961 89 930 121.25 930 174C930 227.5 960.5 259 1001.5 259ZM1127.57 259C1157.32 259 1184.07 235.75 1184.07 195.5C1184.07 154.75 1157.32 131.5 1127.57 131.5C1097.82 131.5 1071.32 154.75 1071.32 195.5C1071.32 235.75 1097.82 259 1127.57 259ZM1127.57 241.75C1106.82 241.75 1092.82 223.25 1092.82 195.5C1092.82 167.5 1106.82 148.75 1127.57 148.75C1148.57 148.75 1162.57 167.5 1162.57 195.5C1162.57 223.25 1148.57 241.75 1127.57 241.75ZM1257.32 259C1271.57 259 1284.57 251 1294.07 241.75H1294.82L1296.57 256H1313.57V78H1292.82V124.75L1293.82 145.5C1283.07 136.75 1273.82 131.5 1259.82 131.5C1232.07 131.5 1207.07 156 1207.07 195.5C1207.07 236 1226.82 259 1257.32 259ZM1261.82 241.5C1240.57 241.5 1228.57 224.25 1228.57 195.25C1228.57 167.5 1244.07 149 1263.32 149C1273.32 149 1282.57 152.25 1292.82 161.5V225C1282.82 236 1273.07 241.5 1261.82 241.5ZM1403.49 259C1420.24 259 1433.24 254 1443.74 246.5L1436.49 233.25C1427.99 239 1417.74 242.25 1405.99 242.25C1382.99 242.25 1367.74 225.75 1365.99 200.75H1447.74C1448.49 196.75 1448.74 193 1448.74 188.5C1448.74 153.5 1430.99 131.5 1399.99 131.5C1372.24 131.5 1345.49 155.75 1345.49 195.25C1345.49 235.5 1370.99 259 1403.49 259ZM1365.99 184.75C1368.49 161.5 1383.49 148 1400.49 148C1418.99 148 1430.24 160.75 1430.24 184.75H1365.99ZM1510.27 259C1539.02 259 1554.77 242.5 1554.77 222.75C1554.77 200.75 1536.52 192.5 1517.52 185.75C1502.27 180.5 1491.77 176 1491.77 165C1491.77 156 1498.52 147.5 1514.02 147.5C1524.77 147.5 1533.52 151 1542.02 157.25L1551.52 145.25C1542.02 137.25 1529.02 131.5 1513.77 131.5C1487.27 131.5 1471.77 146.5 1471.77 166C1471.77 186 1489.27 194.75 1507.52 201.25C1521.27 206.25 1534.77 211.5 1534.77 224C1534.77 234.5 1527.02 242.75 1511.02 242.75C1496.02 242.75 1485.02 238.25 1474.52 229.5L1465.02 241.5C1476.27 252.5 1492.52 259 1510.27 259Z" fill="white"/>
<g filter="url(#filter0_d)">
<path d="M97 86.875C94.75 86.875 92.125 87.3333 89.125 88.25C86.125 89.1667 83.0417 90.9167 79.875 93.5C76.7917 96 73.75 99.5417 70.75 104.125C67.75 108.708 65.0417 114.667 62.625 122C60.2917 129.25 58.375 138.083 56.875 148.5C55.4583 158.917 54.75 171.208 54.75 185.375C54.75 198.875 55.4583 210.583 56.875 220.5C58.375 230.417 60.3333 238.875 62.75 245.875C65.25 252.792 68.0833 258.458 71.25 262.875C74.4167 267.292 77.75 270.708 81.25 273.125C84.75 275.625 88.25 277.333 91.75 278.25C95.25 279.167 98.5417 279.625 101.625 279.625C104.875 279.625 108.167 279.208 111.5 278.375C114.833 277.542 118.083 276.333 121.25 274.75C124.5 273.167 127.583 271.25 130.5 269C133.5 266.75 136.25 264.167 138.75 261.25L144.375 266.875C141.875 269.958 138.875 273.083 135.375 276.25C131.875 279.5 127.792 282.417 123.125 285C118.542 287.667 113.375 289.833 107.625 291.5C101.875 293.167 95.5 294 88.5 294C77.5833 294 67.4167 291.917 58 287.75C48.6667 283.583 40.5 277.083 33.5 268.25C26.5833 259.5 21.125 248.25 17.125 234.5C13.2083 220.75 11.25 204.292 11.25 185.125C11.25 167.125 13.3333 151.333 17.5 137.75C21.6667 124.167 27.3333 112.833 34.5 103.75C41.6667 94.5833 50.0833 87.7083 59.75 83.125C69.4167 78.4583 79.7083 76.125 90.625 76.125C97.875 76.125 104.458 76.8333 110.375 78.25C116.375 79.5833 121.542 81.5833 125.875 84.25C130.208 86.8333 133.542 90.0833 135.875 94C138.292 97.8333 139.5 102.208 139.5 107.125C139.5 109.375 139.125 111.75 138.375 114.25C137.625 116.667 136.458 118.917 134.875 121C133.375 123 131.5 124.667 129.25 126C127 127.25 124.375 127.875 121.375 127.875C118.708 127.875 116.625 127.292 115.125 126.125C113.708 124.958 112.625 123.417 111.875 121.5C111.208 119.583 110.75 117.417 110.5 115C110.333 112.5 110.208 109.958 110.125 107.375C110.042 104.792 109.833 102.292 109.5 99.875C109.25 97.375 108.667 95.1667 107.75 93.25C106.917 91.3333 105.667 89.7917 104 88.625C102.333 87.4583 100 86.875 97 86.875ZM194.75 157C197.833 152.583 201.333 148.625 205.25 145.125C206.833 143.625 208.583 142.167 210.5 140.75C212.5 139.333 214.583 138.083 216.75 137C219 135.833 221.333 134.917 223.75 134.25C226.25 133.583 228.792 133.25 231.375 133.25C236.958 133.25 241.958 134.333 246.375 136.5C250.792 138.667 254.5 142.292 257.5 147.375C260.5 152.458 262.792 159.208 264.375 167.625C265.958 175.958 266.75 186.333 266.75 198.75C266.75 210.833 265.667 221.333 263.5 230.25C261.333 239.167 258.5 246.75 255 253C251.5 259.25 247.542 264.333 243.125 268.25C238.708 272.25 234.25 275.375 229.75 277.625C225.25 279.875 220.917 281.417 216.75 282.25C212.583 283.167 209 283.667 206 283.75L204.75 278.625C208.5 277.708 211.833 276 214.75 273.5C217.667 271 220.125 266.917 222.125 261.25C224.125 255.5 225.625 247.792 226.625 238.125C227.708 228.458 228.25 216 228.25 200.75C228.25 190.25 227.75 181.875 226.75 175.625C225.833 169.292 224.583 164.5 223 161.25C221.5 157.917 219.75 155.75 217.75 154.75C215.833 153.667 213.875 153.125 211.875 153.125C209.458 153.125 207.333 153.792 205.5 155.125C203.667 156.375 202.042 157.833 200.625 159.5C199.292 161.167 198.125 162.833 197.125 164.5C196.208 166.167 195.417 167.417 194.75 168.25V251.75C194.75 252.833 194.583 254.167 194.25 255.75C193.917 257.25 193.083 258.708 191.75 260.125C190.5 261.458 188.583 262.583 186 263.5C183.5 264.5 180.042 265 175.625 265C171.208 265 167.708 264.458 165.125 263.375C162.542 262.375 160.583 261.167 159.25 259.75C158 258.333 157.208 256.875 156.875 255.375C156.542 253.875 156.375 252.667 156.375 251.75V90.5C156.375 88.0833 155.792 86 154.625 84.25C153.542 82.4167 151.667 81.5 149 81.5C147.583 81.5 146.333 81.75 145.25 82.25C144.25 82.6667 143.167 83.3333 142 84.25L139.5 81.25C141.417 79.6667 143.542 78.125 145.875 76.625C148.208 75.0417 150.75 73.6667 153.5 72.5C156.333 71.3333 159.333 70.375 162.5 69.625C165.667 68.875 169 68.5 172.5 68.5C177.917 68.5 182.125 69.25 185.125 70.75C188.125 72.1667 190.333 73.9583 191.75 76.125C193.167 78.2083 194 80.4583 194.25 82.875C194.583 85.2083 194.75 87.2917 194.75 89.125V157ZM332.5 159.625C335.667 154.792 339.042 150.417 342.625 146.5C344.125 144.833 345.75 143.208 347.5 141.625C349.25 140.042 351.042 138.625 352.875 137.375C354.792 136.125 356.75 135.125 358.75 134.375C360.75 133.625 362.75 133.25 364.75 133.25C369 133.25 372.333 134.542 374.75 137.125C377.167 139.625 378.375 143.167 378.375 147.75C378.375 150.583 378.125 153.333 377.625 156C377.208 158.583 376.333 161.75 375 165.5H371.5C371 162.917 369.833 160.792 368 159.125C366.167 157.375 363.5 156.5 360 156.5C357.417 156.5 354.875 157 352.375 158C349.875 158.917 347.417 160.083 345 161.5C342.667 162.917 340.417 164.458 338.25 166.125C336.167 167.792 334.25 169.375 332.5 170.875V252C332.5 253.083 332.333 254.375 332 255.875C331.667 257.375 330.833 258.792 329.5 260.125C328.25 261.458 326.333 262.583 323.75 263.5C321.25 264.5 317.792 265 313.375 265C308.958 265 305.458 264.458 302.875 263.375C300.375 262.375 298.458 261.167 297.125 259.75C295.792 258.333 294.958 256.875 294.625 255.375C294.292 253.875 294.125 252.667 294.125 251.75V155.25C294.125 152.833 293.542 150.75 292.375 149C291.292 147.167 289.417 146.25 286.75 146.25C285.333 146.25 284.125 146.5 283.125 147C282.125 147.5 281.042 148.208 279.875 149.125L277.25 146C279.167 144.417 281.292 142.875 283.625 141.375C286.042 139.792 288.625 138.417 291.375 137.25C294.125 136.083 297.083 135.125 300.25 134.375C303.417 133.625 306.75 133.25 310.25 133.25C313.833 133.25 316.875 133.75 319.375 134.75C321.958 135.667 324.042 136.917 325.625 138.5C327.292 140 328.583 141.708 329.5 143.625C330.417 145.542 331.083 147.5 331.5 149.5C332 151.417 332.292 153.292 332.375 155.125C332.458 156.875 332.5 158.375 332.5 159.625ZM434.25 251.75C434.25 252.833 434.042 254.167 433.625 255.75C433.292 257.25 432.417 258.708 431 260.125C429.667 261.458 427.708 262.583 425.125 263.5C422.542 264.5 419.042 265 414.625 265C410.208 265 406.75 264.458 404.25 263.375C401.75 262.375 399.875 261.167 398.625 259.75C397.375 258.333 396.583 256.875 396.25 255.375C396 253.875 395.875 252.667 395.875 251.75V155.25C395.875 152.833 395.292 150.75 394.125 149C393.042 147.167 391.167 146.25 388.5 146.25C387.083 146.25 385.875 146.5 384.875 147C383.875 147.5 382.792 148.208 381.625 149.125L379 146C380.917 144.417 383.042 142.875 385.375 141.375C387.792 139.792 390.375 138.417 393.125 137.25C395.875 136.083 398.833 135.125 402 134.375C405.167 133.625 408.5 133.25 412 133.25C417.417 133.25 421.625 134 424.625 135.5C427.625 136.917 429.833 138.708 431.25 140.875C432.667 142.958 433.5 145.208 433.75 147.625C434.083 150.042 434.25 152.167 434.25 154V251.75ZM392 104.75C392 102.417 392.5 100.208 393.5 98.125C394.583 95.9583 396.042 94.0833 397.875 92.5C399.792 90.9167 401.958 89.6667 404.375 88.75C406.875 87.8333 409.583 87.375 412.5 87.375C415.333 87.375 417.958 87.8333 420.375 88.75C422.875 89.6667 425.042 90.9167 426.875 92.5C428.708 94.0833 430.125 95.9583 431.125 98.125C432.208 100.208 432.75 102.417 432.75 104.75C432.75 107.167 432.208 109.417 431.125 111.5C430.125 113.583 428.708 115.417 426.875 117C425.042 118.5 422.875 119.708 420.375 120.625C417.958 121.542 415.333 122 412.5 122C409.583 122 406.875 121.542 404.375 120.625C401.958 119.708 399.792 118.5 397.875 117C396.042 115.417 394.583 113.583 393.5 111.5C392.5 109.417 392 107.167 392 104.75ZM506 143.25C504.083 143.25 502.25 143.5 500.5 144C498.833 144.5 497.333 145.333 496 146.5C494.667 147.583 493.625 149 492.875 150.75C492.125 152.417 491.75 154.417 491.75 156.75C491.75 160 492.917 163.25 495.25 166.5C497.667 169.667 500.625 173 504.125 176.5C507.708 179.917 511.542 183.5 515.625 187.25C519.792 190.917 523.625 194.833 527.125 199C530.708 203.083 533.667 207.458 536 212.125C538.417 216.792 539.625 221.792 539.625 227.125C539.625 233.125 538.583 238.458 536.5 243.125C534.5 247.792 531.583 251.75 527.75 255C524 258.25 519.417 260.75 514 262.5C508.667 264.167 502.708 265 496.125 265C490.375 265 485.167 264.208 480.5 262.625C475.833 260.958 471.667 258.958 468 256.625C464.417 254.208 461.333 251.667 458.75 249C456.167 246.333 454.167 243.917 452.75 241.75L457.125 238.625C458.208 239.875 459.583 241.25 461.25 242.75C462.917 244.167 464.75 245.5 466.75 246.75C468.833 248 471.042 249.042 473.375 249.875C475.708 250.625 478.083 251 480.5 251C486.5 251 491.417 249.583 495.25 246.75C499.083 243.833 501 239.542 501 233.875C501 230.708 499.958 227.458 497.875 224.125C495.792 220.708 493.167 217.208 490 213.625C486.833 210.042 483.417 206.333 479.75 202.5C476.083 198.667 472.667 194.708 469.5 190.625C466.333 186.542 463.708 182.333 461.625 178C459.542 173.667 458.5 169.167 458.5 164.5C458.5 159.25 459.542 154.667 461.625 150.75C463.792 146.833 466.625 143.583 470.125 141C473.708 138.417 477.75 136.5 482.25 135.25C486.833 133.917 491.542 133.25 496.375 133.25C501.958 133.25 507.042 133.75 511.625 134.75C516.208 135.75 520.125 137.292 523.375 139.375C526.708 141.375 529.25 143.917 531 147C532.833 150.083 533.75 153.667 533.75 157.75C533.75 160.917 532.708 163.667 530.625 166C528.542 168.333 525.625 169.5 521.875 169.5C518.292 169.5 515.542 168.75 513.625 167.25C511.792 165.667 510.875 163.542 510.875 160.875C510.875 159.125 511.292 157.75 512.125 156.75C513.042 155.75 514.042 154.958 515.125 154.375C516.208 153.708 517.167 153.167 518 152.75C518.917 152.25 519.375 151.625 519.375 150.875C519.375 148.542 518.125 146.708 515.625 145.375C513.125 143.958 509.917 143.25 506 143.25ZM547.25 130.375C547.25 120.625 549.917 112.333 555.25 105.5C560.667 98.6667 568.042 93.0833 577.375 88.75C586.708 84.3333 597.583 81.125 610 79.125C622.417 77.125 635.708 76.125 649.875 76.125C656.625 76.125 663.208 76.2083 669.625 76.375C676.042 76.4583 681.875 76.625 687.125 76.875C692.458 77.125 697.042 77.4167 700.875 77.75C704.708 78.0833 707.5 78.4583 709.25 78.875C710.917 79.2917 712.25 79.75 713.25 80.25C714.25 80.75 715 81.3333 715.5 82C716 82.6667 716.333 83.4583 716.5 84.375C716.667 85.2083 716.75 86.2083 716.75 87.375C716.75 88.375 716.625 89.5 716.375 90.75C716.125 91.9167 715.75 93.0417 715.25 94.125C714.75 95.125 714.125 96 713.375 96.75C712.625 97.5 711.708 97.875 710.625 97.875C709.958 97.875 709.208 97.5833 708.375 97C707.625 96.4167 706.5 95.6667 705 94.75C703.583 93.8333 701.625 92.875 699.125 91.875C696.708 90.875 693.417 89.9167 689.25 89C685.167 88.0833 680.042 87.3333 673.875 86.75C667.792 86.1667 660.417 85.875 651.75 85.875V166H703.625V177H651.75V225.875C651.75 229.792 652.333 233.167 653.5 236C654.667 238.75 656.333 241.042 658.5 242.875C660.667 244.708 663.25 246.042 666.25 246.875C669.333 247.708 672.75 248.125 676.5 248.125C680.75 248.125 685 247.708 689.25 246.875C693.5 245.958 697.5 244.833 701.25 243.5C705.083 242.167 708.542 240.667 711.625 239C714.792 237.333 717.333 235.708 719.25 234.125L724.125 239.5C722.042 241.167 719.25 243.458 715.75 246.375C712.25 249.208 707.958 252 702.875 254.75C697.875 257.5 692 259.917 685.25 262C678.583 264 671 265 662.5 265C659.667 265 656.417 264.833 652.75 264.5C649.167 264.25 645.458 263.708 641.625 262.875C637.792 261.958 634 260.667 630.25 259C626.583 257.25 623.292 254.958 620.375 252.125C617.542 249.292 615.208 245.833 613.375 241.75C611.625 237.583 610.75 232.625 610.75 226.875V177H591.25V166H610.75V87.375C608.083 87.625 605 88.125 601.5 88.875C598.083 89.5417 594.542 90.5417 590.875 91.875C587.292 93.125 583.75 94.625 580.25 96.375C576.75 98.125 573.625 100.167 570.875 102.5C568.125 104.833 565.875 107.458 564.125 110.375C562.458 113.208 561.625 116.292 561.625 119.625C561.625 122.292 561.958 124.417 562.625 126C563.375 127.583 564.208 128.792 565.125 129.625C566.042 130.375 566.958 130.875 567.875 131.125C568.875 131.292 569.583 131.375 570 131.375C572.083 131.375 573.792 131.042 575.125 130.375C576.458 129.625 577.667 128.875 578.75 128.125C579.833 127.292 580.833 126.542 581.75 125.875C582.75 125.125 583.875 124.75 585.125 124.75C586.125 124.75 587.167 125 588.25 125.5C589.417 125.917 590.458 126.625 591.375 127.625C592.375 128.625 593.208 129.958 593.875 131.625C594.542 133.208 594.875 135.167 594.875 137.5C594.875 140.833 594.208 143.75 592.875 146.25C591.625 148.667 589.958 150.667 587.875 152.25C585.875 153.833 583.542 155.042 580.875 155.875C578.292 156.625 575.708 157 573.125 157C569.125 157 565.5 156.333 562.25 155C559.083 153.583 556.375 151.667 554.125 149.25C551.875 146.833 550.167 144.042 549 140.875C547.833 137.625 547.25 134.125 547.25 130.375ZM779.75 159.625C782.917 154.792 786.292 150.417 789.875 146.5C791.375 144.833 793 143.208 794.75 141.625C796.5 140.042 798.292 138.625 800.125 137.375C802.042 136.125 804 135.125 806 134.375C808 133.625 810 133.25 812 133.25C816.25 133.25 819.583 134.542 822 137.125C824.417 139.625 825.625 143.167 825.625 147.75C825.625 150.583 825.375 153.333 824.875 156C824.458 158.583 823.583 161.75 822.25 165.5H818.75C818.25 162.917 817.083 160.792 815.25 159.125C813.417 157.375 810.75 156.5 807.25 156.5C804.667 156.5 802.125 157 799.625 158C797.125 158.917 794.667 160.083 792.25 161.5C789.917 162.917 787.667 164.458 785.5 166.125C783.417 167.792 781.5 169.375 779.75 170.875V252C779.75 253.083 779.583 254.375 779.25 255.875C778.917 257.375 778.083 258.792 776.75 260.125C775.5 261.458 773.583 262.583 771 263.5C768.5 264.5 765.042 265 760.625 265C756.208 265 752.708 264.458 750.125 263.375C747.625 262.375 745.708 261.167 744.375 259.75C743.042 258.333 742.208 256.875 741.875 255.375C741.542 253.875 741.375 252.667 741.375 251.75V155.25C741.375 152.833 740.792 150.75 739.625 149C738.542 147.167 736.667 146.25 734 146.25C732.583 146.25 731.375 146.5 730.375 147C729.375 147.5 728.292 148.208 727.125 149.125L724.5 146C726.417 144.417 728.542 142.875 730.875 141.375C733.292 139.792 735.875 138.417 738.625 137.25C741.375 136.083 744.333 135.125 747.5 134.375C750.667 133.625 754 133.25 757.5 133.25C761.083 133.25 764.125 133.75 766.625 134.75C769.208 135.667 771.292 136.917 772.875 138.5C774.542 140 775.833 141.708 776.75 143.625C777.667 145.542 778.333 147.5 778.75 149.5C779.25 151.417 779.542 153.292 779.625 155.125C779.708 156.875 779.75 158.375 779.75 159.625ZM877.75 252C877.75 253.083 877.542 254.375 877.125 255.875C876.792 257.375 875.917 258.792 874.5 260.125C873.167 261.458 871.167 262.583 868.5 263.5C865.917 264.5 862.417 265 858 265C853.583 265 850.125 264.458 847.625 263.375C845.125 262.375 843.25 261.167 842 259.75C840.833 258.333 840.083 256.875 839.75 255.375C839.5 253.875 839.375 252.667 839.375 251.75V90.5C839.375 88.0833 838.792 86 837.625 84.25C836.542 82.4167 834.667 81.5 832 81.5C830.583 81.5 829.333 81.75 828.25 82.25C827.25 82.6667 826.167 83.3333 825 84.25L822.5 81.25C824.417 79.6667 826.542 78.125 828.875 76.625C831.208 75.0417 833.75 73.6667 836.5 72.5C839.333 71.3333 842.333 70.375 845.5 69.625C848.667 68.875 852 68.5 855.5 68.5C860.917 68.5 865.125 69.25 868.125 70.75C871.125 72.1667 873.333 73.9583 874.75 76.125C876.167 78.2083 877 80.4583 877.25 82.875C877.583 85.2083 877.75 87.2917 877.75 89.125V252Z" fill="white"/>
<path d="M79.875 93.5L83.6538 98.1605L83.6608 98.1549L83.6678 98.1492L79.875 93.5ZM62.625 122L56.9265 120.122L56.9199 120.142L56.9135 120.162L62.625 122ZM56.875 148.5L50.9363 147.645L50.9329 147.668L50.9297 147.691L56.875 148.5ZM56.875 220.5L50.9353 221.349L50.9388 221.373L50.9425 221.397L56.875 220.5ZM62.75 245.875L57.0785 247.833L57.0926 247.874L57.1073 247.915L62.75 245.875ZM81.25 273.125L84.7374 268.243L84.6985 268.215L84.6591 268.188L81.25 273.125ZM121.25 274.75L118.622 269.356L118.594 269.37L118.567 269.383L121.25 274.75ZM130.5 269L126.9 264.2L126.867 264.224L126.835 264.249L130.5 269ZM138.75 261.25L142.993 257.007L138.411 252.426L134.194 257.345L138.75 261.25ZM144.375 266.875L149.036 270.654L152.44 266.455L148.618 262.632L144.375 266.875ZM135.375 276.25L131.35 271.801L131.321 271.827L131.292 271.853L135.375 276.25ZM123.125 285L120.219 279.751L120.163 279.782L120.108 279.814L123.125 285ZM58 287.75L55.5541 293.229L55.5631 293.233L55.5722 293.237L58 287.75ZM33.5 268.25L28.793 271.971L28.7975 271.977L33.5 268.25ZM17.125 234.5L11.3545 236.144L11.3591 236.16L11.3638 236.176L17.125 234.5ZM34.5 103.75L39.2104 107.466L39.2186 107.456L39.2268 107.446L34.5 103.75ZM59.75 83.125L62.3205 88.5465L62.3395 88.5375L62.3585 88.5283L59.75 83.125ZM110.375 78.25L108.978 84.0851L109.026 84.0965L109.073 84.1071L110.375 78.25ZM125.875 84.25L122.73 89.3599L122.766 89.3821L122.803 89.4037L125.875 84.25ZM135.875 94L130.72 97.0708L130.759 97.1358L130.799 97.1998L135.875 94ZM138.375 114.25L144.105 116.028L144.114 116.001L144.122 115.974L138.375 114.25ZM134.875 121L130.098 117.369L130.086 117.385L130.075 117.4L134.875 121ZM129.25 126L132.164 131.245L132.237 131.204L132.309 131.162L129.25 126ZM115.125 126.125L111.311 130.757L111.375 130.81L111.441 130.861L115.125 126.125ZM111.875 121.5L106.208 123.471L106.246 123.58L106.288 123.686L111.875 121.5ZM110.5 115L104.513 115.399L104.521 115.508L104.532 115.617L110.5 115ZM109.5 99.875L103.53 100.472L103.541 100.584L103.556 100.695L109.5 99.875ZM107.75 93.25L102.248 95.6424L102.291 95.7413L102.337 95.8387L107.75 93.25ZM97 80.875C93.9733 80.875 90.7341 81.4845 87.3717 82.5119L90.8783 93.9881C93.5159 93.1822 95.5267 92.875 97 92.875V80.875ZM87.3717 82.5119C83.4397 83.7133 79.678 85.9175 76.0822 88.8508L83.6678 98.1492C86.4054 95.9159 88.8103 94.62 90.8783 93.9881L87.3717 82.5119ZM76.0962 88.8395C72.3861 91.8476 68.9506 95.9184 65.7298 100.839L75.7702 107.411C78.5494 103.165 81.1972 100.152 83.6538 98.1605L76.0962 88.8395ZM65.7298 100.839C62.353 105.998 59.4457 112.477 56.9265 120.122L68.3235 123.878C70.6376 116.856 73.147 111.419 75.7702 107.411L65.7298 100.839ZM56.9135 120.162C54.4464 127.828 52.4676 137.011 50.9363 147.645L62.8137 149.355C64.2824 139.156 66.137 130.672 68.3365 123.838L56.9135 120.162ZM50.9297 147.691C49.4666 158.45 48.75 171.024 48.75 185.375H60.75C60.75 171.392 61.4501 159.384 62.8203 149.309L50.9297 147.691ZM48.75 185.375C48.75 199.068 49.4674 211.073 50.9353 221.349L62.8147 219.651C61.4492 210.093 60.75 198.682 60.75 185.375H48.75ZM50.9425 221.397C52.4793 231.557 54.5094 240.392 57.0785 247.833L68.4215 243.917C66.1573 237.358 64.2707 229.276 62.8075 219.603L50.9425 221.397ZM57.1073 247.915C59.7333 255.18 62.7955 261.38 66.3738 266.371L76.1262 259.379C73.3712 255.536 70.7667 250.403 68.3927 243.835L57.1073 247.915ZM66.3738 266.371C69.8365 271.201 73.6395 275.161 77.8409 278.062L84.6591 268.188C81.8605 266.255 78.9969 263.383 76.1262 259.379L66.3738 266.371ZM77.7626 278.007C81.7471 280.854 85.9039 282.921 90.2298 284.054L93.2702 272.446C90.5961 271.745 87.7529 270.396 84.7374 268.243L77.7626 278.007ZM90.2298 284.054C94.1427 285.079 97.9491 285.625 101.625 285.625V273.625C99.1342 273.625 96.3573 273.254 93.2702 272.446L90.2298 284.054ZM101.625 285.625C105.393 285.625 109.173 285.141 112.955 284.196L110.045 272.554C107.16 273.275 104.357 273.625 101.625 273.625V285.625ZM112.955 284.196C116.726 283.253 120.387 281.89 123.933 280.117L118.567 269.383C115.78 270.777 112.941 271.83 110.045 272.554L112.955 284.196ZM123.878 280.144C127.501 278.379 130.931 276.245 134.165 273.751L126.835 264.249C124.235 266.255 121.499 267.955 118.622 269.356L123.878 280.144ZM134.1 273.8C137.459 271.281 140.528 268.396 143.306 265.155L134.194 257.345C131.972 259.938 129.541 262.219 126.9 264.2L134.1 273.8ZM134.507 265.493L140.132 271.118L148.618 262.632L142.993 257.007L134.507 265.493ZM139.714 263.096C137.441 265.9 134.662 268.803 131.35 271.801L139.4 280.699C143.088 277.363 146.309 274.016 149.036 270.654L139.714 263.096ZM131.292 271.853C128.187 274.737 124.509 277.376 120.219 279.751L126.031 290.249C131.074 287.458 135.563 284.263 139.458 280.647L131.292 271.853ZM120.108 279.814C115.998 282.205 111.293 284.19 105.955 285.737L109.295 297.263C115.457 295.477 121.085 293.129 126.142 290.186L120.108 279.814ZM105.955 285.737C100.83 287.223 95.0278 288 88.5 288V300C95.9722 300 102.92 299.111 109.295 297.263L105.955 285.737ZM88.5 288C78.3683 288 69.0343 286.071 60.4278 282.263L55.5722 293.237C65.799 297.762 76.7983 300 88.5 300V288ZM60.4459 282.271C52.0827 278.538 44.6651 272.679 38.2025 264.524L28.7975 271.977C36.3349 281.488 45.2506 288.629 55.5541 293.229L60.4459 282.271ZM38.207 264.529C31.8854 256.532 26.7287 246.033 22.8862 232.824L11.3638 236.176C15.5213 250.467 21.2813 262.468 28.793 271.971L38.207 264.529ZM22.8955 232.856C19.1728 219.787 17.25 203.912 17.25 185.125H5.25C5.25 204.671 7.2439 221.713 11.3545 236.144L22.8955 232.856ZM17.25 185.125C17.25 167.57 19.2838 152.394 23.2362 139.51L11.7638 135.99C7.38284 150.272 5.25 166.68 5.25 185.125H17.25ZM23.2362 139.51C27.2331 126.48 32.5955 115.85 39.2104 107.466L29.7896 100.034C22.0711 109.816 16.1002 121.854 11.7638 135.99L23.2362 139.51ZM39.2268 107.446C45.8701 98.9484 53.5693 92.6958 62.3205 88.5465L57.1795 77.7035C46.5974 82.7209 37.4633 90.2183 29.7732 100.054L39.2268 107.446ZM62.3585 88.5283C71.1975 84.2612 80.5958 82.125 90.625 82.125V70.125C78.8209 70.125 67.6359 72.6555 57.1415 77.7217L62.3585 88.5283ZM90.625 82.125C97.4912 82.125 103.596 82.7965 108.978 84.0851L111.772 72.4149C105.32 70.8702 98.2588 70.125 90.625 70.125V82.125ZM109.073 84.1071C114.553 85.3248 119.07 87.1072 122.73 89.3599L129.02 79.1401C124.014 76.0594 118.197 73.8419 111.677 72.3929L109.073 84.1071ZM122.803 89.4037C126.373 91.532 128.95 94.0992 130.72 97.0708L141.03 90.9292C138.133 86.0675 134.044 82.1347 128.947 79.0963L122.803 89.4037ZM130.799 97.1998C132.561 99.9939 133.5 103.241 133.5 107.125H145.5C145.5 101.176 144.022 95.6728 140.951 90.8002L130.799 97.1998ZM133.5 107.125C133.5 108.706 133.236 110.498 132.628 112.526L144.122 115.974C145.014 113.002 145.5 110.044 145.5 107.125H133.5ZM132.645 112.472C132.109 114.197 131.273 115.824 130.098 117.369L139.652 124.631C141.644 122.009 143.141 119.136 144.105 116.028L132.645 112.472ZM130.075 117.4C129.069 118.741 127.796 119.887 126.191 120.838L132.309 131.162C135.204 129.446 137.681 127.259 139.675 124.6L130.075 117.4ZM126.336 120.755C125.115 121.433 123.525 121.875 121.375 121.875V133.875C125.225 133.875 128.885 133.067 132.164 131.245L126.336 120.755ZM121.375 121.875C119.516 121.875 118.904 121.463 118.809 121.389L111.441 130.861C114.346 133.12 117.901 133.875 121.375 133.875V121.875ZM118.939 121.493C118.405 121.053 117.886 120.395 117.462 119.314L106.288 123.686C107.364 126.438 109.012 128.863 111.311 130.757L118.939 121.493ZM117.542 119.529C117.054 118.126 116.679 116.425 116.468 114.383L104.532 115.617C104.821 118.408 105.363 121.04 106.208 123.471L117.542 119.529ZM116.487 114.601C116.325 112.171 116.203 109.698 116.122 107.182L104.128 107.568C104.214 110.218 104.342 112.829 104.513 115.399L116.487 114.601ZM116.122 107.182C116.032 104.401 115.807 101.691 115.444 99.0552L103.556 100.695C103.859 102.892 104.051 105.182 104.128 107.568L116.122 107.182ZM115.47 99.278C115.163 96.21 114.428 93.3073 113.163 90.6613L102.337 95.8387C102.905 97.026 103.337 98.54 103.53 100.472L115.47 99.278ZM113.252 90.8576C111.99 87.9551 110.04 85.529 107.441 83.7096L100.559 93.5404C101.293 94.0543 101.843 94.7116 102.248 95.6424L113.252 90.8576ZM107.441 83.7096C104.391 81.5745 100.676 80.875 97 80.875V92.875C99.3237 92.875 100.276 93.3421 100.559 93.5404L107.441 83.7096ZM194.75 157H188.75V176.076L199.67 160.435L194.75 157ZM205.25 145.125L209.248 149.599L209.313 149.541L209.376 149.481L205.25 145.125ZM210.5 140.75L207.032 135.854L206.982 135.889L206.934 135.925L210.5 140.75ZM216.75 137L219.433 142.367L219.473 142.347L219.512 142.327L216.75 137ZM223.75 134.25L222.204 128.453L222.179 128.459L222.154 128.466L223.75 134.25ZM246.375 136.5L249.018 131.113L246.375 136.5ZM264.375 167.625L258.478 168.734L258.48 168.745L264.375 167.625ZM243.125 268.25L239.144 263.761L239.121 263.782L239.097 263.803L243.125 268.25ZM216.75 282.25L215.573 276.367L215.517 276.378L215.461 276.39L216.75 282.25ZM206 283.75L200.171 285.172L201.32 289.882L206.167 289.748L206 283.75ZM204.75 278.625L203.325 272.797L197.5 274.221L198.921 280.047L204.75 278.625ZM222.125 261.25L227.783 263.247L227.787 263.234L227.792 263.221L222.125 261.25ZM226.625 238.125L220.662 237.457L220.659 237.482L220.657 237.508L226.625 238.125ZM226.75 175.625L220.812 176.484L220.818 176.529L220.825 176.573L226.75 175.625ZM223 161.25L217.528 163.712L217.566 163.796L217.606 163.878L223 161.25ZM217.75 154.75L214.798 159.973L214.93 160.048L215.067 160.117L217.75 154.75ZM205.5 155.125L208.88 160.082L208.955 160.031L209.029 159.977L205.5 155.125ZM200.625 159.5L196.053 155.614L195.996 155.682L195.94 155.752L200.625 159.5ZM197.125 164.5L191.98 161.413L191.922 161.51L191.868 161.608L197.125 164.5ZM194.75 168.25L190.065 164.502L188.75 166.145V168.25H194.75ZM194.25 255.75L200.107 257.052L200.114 257.019L200.121 256.986L194.25 255.75ZM191.75 260.125L187.381 256.013L187.373 256.021L191.75 260.125ZM186 263.5L183.994 257.845L183.882 257.885L183.772 257.929L186 263.5ZM165.125 263.375L167.445 257.842L167.369 257.81L167.291 257.78L165.125 263.375ZM159.25 259.75L154.751 263.72L154.815 263.792L154.881 263.862L159.25 259.75ZM154.625 84.25L149.459 87.3024L149.542 87.4426L149.633 87.5782L154.625 84.25ZM145.25 82.25L147.558 87.7885L147.662 87.7451L147.764 87.6978L145.25 82.25ZM142 84.25L137.391 88.0911L141.123 92.5697L145.707 88.9679L142 84.25ZM139.5 81.25L135.679 76.6242L131.033 80.462L134.891 85.0911L139.5 81.25ZM145.875 76.625L149.12 81.6721L149.182 81.6317L149.244 81.5899L145.875 76.625ZM153.5 72.5L151.215 66.9519L151.186 66.9641L151.157 66.9765L153.5 72.5ZM185.125 70.75L182.442 76.1166L182.502 76.1467L182.563 76.1755L185.125 70.75ZM191.75 76.125L186.728 79.4085L186.758 79.4539L186.788 79.4989L191.75 76.125ZM194.25 82.875L188.282 83.4924L188.294 83.6082L188.31 83.7235L194.25 82.875ZM199.67 160.435C202.494 156.389 205.687 152.782 209.248 149.599L201.252 140.651C196.98 144.468 193.173 148.778 189.83 153.565L199.67 160.435ZM209.376 149.481C210.767 148.163 212.328 146.86 214.066 145.575L206.934 135.925C204.839 137.473 202.899 139.087 201.124 140.769L209.376 149.481ZM213.968 145.646C215.722 144.404 217.543 143.312 219.433 142.367L214.067 131.633C211.624 132.855 209.278 134.263 207.032 135.854L213.968 145.646ZM219.512 142.327C221.394 141.35 223.337 140.588 225.346 140.034L222.154 128.466C219.33 129.245 216.606 130.316 213.988 131.673L219.512 142.327ZM225.296 140.047C227.292 139.515 229.314 139.25 231.375 139.25V127.25C228.269 127.25 225.208 127.652 222.204 128.453L225.296 140.047ZM231.375 139.25C236.166 139.25 240.243 140.175 243.732 141.887L249.018 131.113C243.674 128.492 237.75 127.25 231.375 127.25V139.25ZM243.732 141.887C246.903 143.442 249.808 146.146 252.333 150.425L262.667 144.325C259.192 138.438 254.68 133.891 249.018 131.113L243.732 141.887ZM252.333 150.425C254.858 154.703 256.971 160.721 258.478 168.734L270.272 166.516C268.612 157.696 266.142 150.213 262.667 144.325L252.333 150.425ZM258.48 168.745C259.97 176.582 260.75 186.553 260.75 198.75H272.75C272.75 186.113 271.947 175.334 270.27 166.505L258.48 168.745ZM260.75 198.75C260.75 210.497 259.695 220.5 257.67 228.833L269.33 231.667C271.639 222.167 272.75 211.17 272.75 198.75H260.75ZM257.67 228.833C255.598 237.361 252.936 244.405 249.765 250.068L260.235 255.932C264.064 249.095 267.069 240.973 269.33 231.667L257.67 228.833ZM249.765 250.068C246.525 255.854 242.964 260.373 239.144 263.761L247.106 272.739C252.119 268.294 256.475 262.646 260.235 255.932L249.765 250.068ZM239.097 263.803C235.013 267.502 230.999 270.292 227.067 272.258L232.433 282.992C237.501 280.458 242.404 276.998 247.153 272.697L239.097 263.803ZM227.067 272.258C222.959 274.312 219.131 275.655 215.573 276.367L217.927 288.133C222.702 287.178 227.541 285.438 232.433 282.992L227.067 272.258ZM215.461 276.39C211.523 277.257 208.335 277.683 205.833 277.752L206.167 289.748C209.665 289.651 213.644 289.077 218.039 288.11L215.461 276.39ZM211.829 282.328L210.579 277.203L198.921 280.047L200.171 285.172L211.829 282.328ZM206.175 284.453C210.835 283.314 215.019 281.172 218.655 278.056L210.845 268.944C208.648 270.828 206.165 272.102 203.325 272.797L206.175 284.453ZM218.655 278.056C222.699 274.589 225.613 269.396 227.783 263.247L216.467 259.253C214.637 264.437 212.634 267.411 210.845 268.944L218.655 278.056ZM227.792 263.221C230.007 256.853 231.57 248.632 232.593 238.742L220.657 237.508C219.68 246.951 218.243 254.147 216.458 259.279L227.792 263.221ZM232.588 238.793C233.706 228.817 234.25 216.113 234.25 200.75H222.25C222.25 215.887 221.711 228.099 220.662 237.457L232.588 238.793ZM234.25 200.75C234.25 190.11 233.747 181.377 232.675 174.677L220.825 176.573C221.753 182.373 222.25 190.39 222.25 200.75H234.25ZM232.688 174.766C231.74 168.214 230.381 162.702 228.394 158.622L217.606 163.878C218.785 166.298 219.927 170.37 220.812 176.484L232.688 174.766ZM228.472 158.788C226.738 154.936 224.241 151.287 220.433 149.383L215.067 160.117C215.259 160.213 216.262 160.898 217.528 163.712L228.472 158.788ZM220.702 149.527C217.978 147.987 215.012 147.125 211.875 147.125V159.125C212.738 159.125 213.689 159.347 214.798 159.973L220.702 149.527ZM211.875 147.125C208.279 147.125 204.899 148.143 201.971 150.273L209.029 159.977C209.767 159.441 210.638 159.125 211.875 159.125V147.125ZM202.12 150.168C199.85 151.715 197.823 153.533 196.053 155.614L205.197 163.386C206.261 162.134 207.484 161.035 208.88 160.082L202.12 150.168ZM195.94 155.752C194.455 157.608 193.131 159.495 191.98 161.413L202.27 167.587C203.119 166.172 204.129 164.725 205.31 163.248L195.94 155.752ZM191.868 161.608C191.01 163.168 190.412 164.068 190.065 164.502L199.435 171.998C200.421 170.766 201.407 169.165 202.382 167.392L191.868 161.608ZM188.75 168.25V251.75H200.75V168.25H188.75ZM188.75 251.75C188.75 252.269 188.664 253.159 188.379 254.514L200.121 256.986C200.503 255.174 200.75 253.398 200.75 251.75H188.75ZM188.393 254.448C188.348 254.649 188.169 255.176 187.381 256.013L196.119 264.237C197.998 262.241 199.485 259.851 200.107 257.052L188.393 254.448ZM187.373 256.021C187.024 256.394 186.088 257.102 183.994 257.845L188.006 269.155C191.078 268.065 193.976 266.523 196.127 264.229L187.373 256.021ZM183.772 257.929C182.291 258.522 179.704 259 175.625 259V271C180.379 271 184.709 270.478 188.228 269.071L183.772 257.929ZM175.625 259C171.597 259 168.993 258.491 167.445 257.842L162.805 268.908C166.423 270.426 170.82 271 175.625 271V259ZM167.291 257.78C165.214 256.975 164.135 256.185 163.619 255.638L154.881 263.862C157.032 266.148 159.87 267.775 162.959 268.97L167.291 257.78ZM163.749 255.78C163.018 254.951 162.8 254.381 162.732 254.073L151.018 256.677C151.616 259.369 152.982 261.715 154.751 263.72L163.749 255.78ZM162.732 254.073C162.439 252.755 162.375 252.034 162.375 251.75H150.375C150.375 253.299 150.644 254.995 151.018 256.677L162.732 254.073ZM162.375 251.75V90.5H150.375V251.75H162.375ZM162.375 90.5C162.375 87.0803 161.535 83.7983 159.617 80.9218L149.633 87.5782C150.048 88.2017 150.375 89.0863 150.375 90.5H162.375ZM159.791 81.1976C157.346 77.06 153.168 75.5 149 75.5V87.5C149.666 87.5 149.849 87.6161 149.771 87.5778C149.728 87.5568 149.655 87.5123 149.579 87.4414C149.503 87.3712 149.466 87.314 149.459 87.3024L159.791 81.1976ZM149 75.5C146.876 75.5 144.741 75.8766 142.736 76.8022L147.764 87.6978C147.926 87.6234 148.291 87.5 149 87.5V75.5ZM142.942 76.7115C141.295 77.398 139.741 78.3942 138.293 79.5321L145.707 88.9679C146.592 88.2724 147.205 87.9353 147.558 87.7885L142.942 76.7115ZM146.609 80.4089L144.109 77.4089L134.891 85.0911L137.391 88.0911L146.609 80.4089ZM143.321 85.8758C145.035 84.4604 146.964 83.0577 149.12 81.6721L142.63 71.5779C140.119 73.1923 137.799 74.8729 135.679 76.6242L143.321 85.8758ZM149.244 81.5899C151.236 80.2382 153.431 79.0467 155.843 78.0235L151.157 66.9765C148.069 68.2866 145.181 69.8451 142.506 71.6601L149.244 81.5899ZM155.785 78.0481C158.308 77.009 161.005 76.1451 163.883 75.4635L161.117 63.7865C157.662 64.6049 154.359 65.6577 151.215 66.9519L155.785 78.0481ZM163.883 75.4635C166.564 74.8285 169.431 74.5 172.5 74.5V62.5C168.569 62.5 164.77 62.9215 161.117 63.7865L163.883 75.4635ZM172.5 74.5C177.494 74.5 180.634 75.213 182.442 76.1166L187.808 65.3834C183.616 63.287 178.339 62.5 172.5 62.5V74.5ZM182.563 76.1755C184.839 77.2503 186.067 78.3967 186.728 79.4085L196.772 72.8415C194.6 69.52 191.411 67.083 187.687 65.3245L182.563 76.1755ZM186.788 79.4989C187.668 80.7924 188.138 82.1009 188.282 83.4924L200.218 82.2576C199.862 78.8158 198.665 75.6243 196.712 72.7511L186.788 79.4989ZM188.31 83.7235C188.614 85.8507 188.75 87.6424 188.75 89.125H200.75C200.75 86.941 200.552 84.5659 200.19 82.0265L188.31 83.7235ZM188.75 89.125V157H200.75V89.125H188.75ZM332.5 159.625H326.5V179.731L337.519 162.913L332.5 159.625ZM342.625 146.5L347.052 150.55L347.068 150.532L347.085 150.514L342.625 146.5ZM352.875 137.375L349.597 132.349L349.546 132.383L349.495 132.418L352.875 137.375ZM374.75 137.125L370.368 141.224L370.402 141.26L370.436 141.295L374.75 137.125ZM377.625 156L371.728 154.894L371.714 154.969L371.702 155.045L377.625 156ZM375 165.5V171.5H379.235L380.653 167.51L375 165.5ZM371.5 165.5L365.609 166.64L366.55 171.5H371.5V165.5ZM368 159.125L363.857 163.465L363.91 163.516L363.964 163.565L368 159.125ZM352.375 158L354.441 163.633L354.522 163.603L354.603 163.571L352.375 158ZM345 161.5L341.966 156.324L341.926 156.347L341.886 156.371L345 161.5ZM338.25 166.125L334.592 161.369L334.546 161.404L334.502 161.44L338.25 166.125ZM332.5 170.875L328.595 166.319L326.5 168.115V170.875H332.5ZM329.5 260.125L325.257 255.882L325.189 255.951L325.123 256.021L329.5 260.125ZM323.75 263.5L321.744 257.845L321.632 257.885L321.522 257.929L323.75 263.5ZM302.875 263.375L305.195 257.842L305.15 257.823L305.103 257.804L302.875 263.375ZM297.125 259.75L292.756 263.862L297.125 259.75ZM292.375 149L287.209 152.052L287.292 152.193L287.383 152.328L292.375 149ZM279.875 149.125L275.281 152.984L279.016 157.431L283.582 153.843L279.875 149.125ZM277.25 146L273.429 141.374L268.765 145.227L272.656 149.859L277.25 146ZM283.625 141.375L286.87 146.422L286.891 146.408L286.913 146.394L283.625 141.375ZM319.375 134.75L317.147 140.321L317.257 140.365L317.369 140.405L319.375 134.75ZM325.625 138.5L321.382 142.743L321.494 142.854L321.611 142.96L325.625 138.5ZM331.5 149.5L325.626 150.724L325.657 150.87L325.694 151.015L331.5 149.5ZM332.375 155.125L326.381 155.397L326.382 155.41L332.375 155.125ZM337.519 162.913C340.524 158.326 343.704 154.209 347.052 150.55L338.198 142.45C334.379 146.624 330.809 151.257 327.481 156.337L337.519 162.913ZM347.085 150.514C348.441 149.007 349.92 147.527 351.525 146.074L343.475 137.176C341.58 138.89 339.809 140.659 338.165 142.486L347.085 150.514ZM351.525 146.074C353.085 144.663 354.662 143.419 356.255 142.332L349.495 132.418C347.421 133.831 345.415 135.42 343.475 137.176L351.525 146.074ZM356.153 142.401C357.728 141.373 359.296 140.578 360.857 139.993L356.643 128.757C354.204 129.672 351.856 130.877 349.597 132.349L356.153 142.401ZM360.857 139.993C362.229 139.478 363.517 139.25 364.75 139.25V127.25C361.983 127.25 359.271 127.772 356.643 128.757L360.857 139.993ZM364.75 139.25C367.701 139.25 369.312 140.094 370.368 141.224L379.132 133.026C375.355 128.989 370.299 127.25 364.75 127.25V139.25ZM370.436 141.295C371.462 142.356 372.375 144.212 372.375 147.75H384.375C384.375 142.121 382.872 136.894 379.064 132.955L370.436 141.295ZM372.375 147.75C372.375 150.229 372.156 152.608 371.728 154.894L383.522 157.106C384.094 154.059 384.375 150.938 384.375 147.75H372.375ZM371.702 155.045C371.364 157.135 370.614 159.925 369.347 163.49L380.653 167.51C382.053 163.575 383.052 160.032 383.548 156.955L371.702 155.045ZM375 159.5H371.5V171.5H375V159.5ZM377.391 164.36C376.661 160.589 374.889 157.279 372.036 154.685L363.964 163.565C364.778 164.305 365.339 165.244 365.609 166.64L377.391 164.36ZM372.143 154.785C368.826 151.619 364.448 150.5 360 150.5V162.5C362.552 162.5 363.507 163.131 363.857 163.465L372.143 154.785ZM360 150.5C356.621 150.5 353.325 151.158 350.147 152.429L354.603 163.571C356.425 162.842 358.212 162.5 360 162.5V150.5ZM350.309 152.367C347.457 153.413 344.675 154.736 341.966 156.324L348.034 166.676C350.158 165.431 352.293 164.421 354.441 163.633L350.309 152.367ZM341.886 156.371C339.364 157.902 336.933 159.569 334.592 161.369L341.908 170.881C343.901 169.348 345.969 167.931 348.114 166.629L341.886 156.371ZM334.502 161.44C332.374 163.142 330.404 164.769 328.595 166.319L336.405 175.431C338.096 173.981 339.96 172.441 341.998 170.81L334.502 161.44ZM326.5 170.875V252H338.5V170.875H326.5ZM326.5 252C326.5 252.506 326.417 253.339 326.143 254.573L337.857 257.177C338.249 255.411 338.5 253.661 338.5 252H326.5ZM326.143 254.573C326.108 254.73 325.968 255.172 325.257 255.882L333.743 264.368C335.699 262.411 337.225 260.02 337.857 257.177L326.143 254.573ZM325.123 256.021C324.774 256.394 323.838 257.102 321.744 257.845L325.756 269.155C328.828 268.065 331.726 266.523 333.877 264.229L325.123 256.021ZM321.522 257.929C320.04 258.522 317.454 259 313.375 259V271C318.129 271 322.46 270.478 325.978 269.071L321.522 257.929ZM313.375 259C309.347 259 306.743 258.491 305.195 257.842L300.555 268.908C304.173 270.426 308.57 271 313.375 271V259ZM305.103 257.804C303.122 257.012 302.045 256.223 301.494 255.638L292.756 263.862C294.872 266.11 297.628 267.738 300.647 268.946L305.103 257.804ZM301.494 255.638C300.706 254.801 300.527 254.274 300.482 254.073L288.768 256.677C289.39 259.476 290.877 261.866 292.756 263.862L301.494 255.638ZM300.482 254.073C300.189 252.755 300.125 252.034 300.125 251.75H288.125C288.125 253.299 288.394 254.995 288.768 256.677L300.482 254.073ZM300.125 251.75V155.25H288.125V251.75H300.125ZM300.125 155.25C300.125 151.83 299.285 148.548 297.367 145.672L287.383 152.328C287.798 152.952 288.125 153.836 288.125 155.25H300.125ZM297.541 145.948C295.096 141.81 290.918 140.25 286.75 140.25V152.25C287.416 152.25 287.599 152.366 287.521 152.328C287.478 152.307 287.405 152.262 287.329 152.191C287.253 152.121 287.216 152.064 287.209 152.052L297.541 145.948ZM286.75 140.25C284.644 140.25 282.467 140.621 280.442 141.633L285.808 152.367C285.783 152.379 286.023 152.25 286.75 152.25V140.25ZM280.442 141.633C278.984 142.362 277.557 143.316 276.168 144.407L283.582 153.843C284.527 153.101 285.266 152.638 285.808 152.367L280.442 141.633ZM284.469 145.266L281.844 142.141L272.656 149.859L275.281 152.984L284.469 145.266ZM281.071 150.626C282.785 149.21 284.714 147.808 286.87 146.422L280.38 136.328C277.869 137.942 275.549 139.623 273.429 141.374L281.071 150.626ZM286.913 146.394C289.021 145.013 291.287 143.805 293.718 142.773L289.032 131.727C285.963 133.028 283.063 134.57 280.337 136.356L286.913 146.394ZM293.718 142.773C296.131 141.75 298.766 140.893 301.633 140.213L298.867 128.537C295.401 129.357 292.119 130.417 289.032 131.727L293.718 142.773ZM301.633 140.213C304.314 139.579 307.181 139.25 310.25 139.25V127.25C306.319 127.25 302.52 127.671 298.867 128.537L301.633 140.213ZM310.25 139.25C313.308 139.25 315.547 139.681 317.147 140.321L321.603 129.179C318.203 127.819 314.358 127.25 310.25 127.25V139.25ZM317.369 140.405C319.296 141.088 320.556 141.916 321.382 142.743L329.868 134.257C327.528 131.918 324.621 130.245 321.381 129.095L317.369 140.405ZM321.611 142.96C322.726 143.963 323.528 145.045 324.087 146.214L334.913 141.036C333.638 138.371 331.857 136.037 329.639 134.04L321.611 142.96ZM324.087 146.214C324.804 147.713 325.312 149.214 325.626 150.724L337.374 148.276C336.855 145.786 336.029 143.37 334.913 141.036L324.087 146.214ZM325.694 151.015C326.097 152.557 326.318 154.015 326.381 155.397L338.369 154.853C338.265 152.568 337.903 150.277 337.306 147.985L325.694 151.015ZM326.382 155.41C326.462 157.1 326.5 158.499 326.5 159.625H338.5C338.5 158.251 338.454 156.65 338.368 154.84L326.382 155.41ZM433.625 255.75L427.823 254.223L427.793 254.335L427.768 254.448L433.625 255.75ZM431 260.125L435.243 264.368L431 260.125ZM425.125 263.5L423.119 257.845L423.038 257.874L422.959 257.905L425.125 263.5ZM404.25 263.375L406.636 257.87L406.557 257.836L406.478 257.804L404.25 263.375ZM396.25 255.375L390.332 256.361L390.358 256.52L390.393 256.677L396.25 255.375ZM394.125 149L388.959 152.052L389.042 152.193L389.133 152.328L394.125 149ZM381.625 149.125L377.031 152.984L380.766 157.431L385.332 153.843L381.625 149.125ZM379 146L375.179 141.374L370.515 145.227L374.406 149.859L379 146ZM385.375 141.375L388.62 146.422L388.641 146.408L388.663 146.394L385.375 141.375ZM424.625 135.5L421.942 140.867L422.002 140.897L422.063 140.925L424.625 135.5ZM431.25 140.875L426.228 144.158L426.258 144.204L426.288 144.249L431.25 140.875ZM433.75 147.625L427.782 148.242L427.792 148.344L427.806 148.445L433.75 147.625ZM393.5 98.125L388.133 95.4417L388.112 95.485L388.091 95.5286L393.5 98.125ZM397.875 92.5L394.054 87.8742L394.003 87.9161L393.953 87.9591L397.875 92.5ZM404.375 88.75L402.309 83.1167L402.278 83.1282L402.247 83.14L404.375 88.75ZM420.375 88.75L418.247 94.36L418.278 94.3718L418.309 94.3833L420.375 88.75ZM431.125 98.125L425.677 100.639L425.736 100.768L425.802 100.893L431.125 98.125ZM431.125 111.5L425.802 108.732L425.757 108.817L425.716 108.904L431.125 111.5ZM426.875 117L430.674 121.644L430.736 121.593L430.797 121.541L426.875 117ZM420.375 120.625L418.309 114.992L418.278 115.003L418.247 115.015L420.375 120.625ZM404.375 120.625L402.247 126.235L402.278 126.247L402.309 126.258L404.375 120.625ZM397.875 117L393.953 121.541L394.063 121.636L394.177 121.725L397.875 117ZM393.5 111.5L388.091 114.096L388.132 114.183L388.177 114.268L393.5 111.5ZM428.25 251.75C428.25 252.127 428.168 252.912 427.823 254.223L439.427 257.277C439.916 255.422 440.25 253.539 440.25 251.75H428.25ZM427.768 254.448C427.747 254.543 427.608 255.032 426.757 255.882L435.243 264.368C437.225 262.385 438.836 259.957 439.482 257.052L427.768 254.448ZM426.757 255.882C426.275 256.365 425.213 257.102 423.119 257.845L427.131 269.155C430.203 268.065 433.059 266.552 435.243 264.368L426.757 255.882ZM422.959 257.905C421.354 258.526 418.689 259 414.625 259V271C419.395 271 423.729 270.474 427.291 269.095L422.959 257.905ZM414.625 259C410.581 259 408.058 258.486 406.636 257.87L401.864 268.88C405.442 270.431 409.836 271 414.625 271V259ZM406.478 257.804C404.504 257.014 403.546 256.258 403.124 255.78L394.126 263.72C396.204 266.075 398.996 267.736 402.022 268.946L406.478 257.804ZM403.124 255.78C402.393 254.951 402.175 254.381 402.107 254.073L390.393 256.677C390.991 259.369 392.357 261.715 394.126 263.72L403.124 255.78ZM402.168 254.389C401.942 253.032 401.875 252.192 401.875 251.75H389.875C389.875 253.141 390.058 254.718 390.332 256.361L402.168 254.389ZM401.875 251.75V155.25H389.875V251.75H401.875ZM401.875 155.25C401.875 151.83 401.035 148.548 399.117 145.672L389.133 152.328C389.548 152.952 389.875 153.836 389.875 155.25H401.875ZM399.291 145.948C396.846 141.81 392.668 140.25 388.5 140.25V152.25C389.166 152.25 389.349 152.366 389.271 152.328C389.228 152.307 389.155 152.262 389.079 152.191C389.003 152.121 388.966 152.064 388.959 152.052L399.291 145.948ZM388.5 140.25C386.394 140.25 384.217 140.621 382.192 141.633L387.558 152.367C387.533 152.379 387.773 152.25 388.5 152.25V140.25ZM382.192 141.633C380.734 142.362 379.307 143.316 377.918 144.407L385.332 153.843C386.277 153.101 387.016 152.638 387.558 152.367L382.192 141.633ZM386.219 145.266L383.594 142.141L374.406 149.859L377.031 152.984L386.219 145.266ZM382.821 150.626C384.535 149.21 386.464 147.808 388.62 146.422L382.13 136.328C379.619 137.942 377.299 139.623 375.179 141.374L382.821 150.626ZM388.663 146.394C390.771 145.013 393.037 143.805 395.468 142.773L390.782 131.727C387.713 133.028 384.813 134.57 382.087 136.356L388.663 146.394ZM395.468 142.773C397.881 141.75 400.516 140.893 403.383 140.213L400.617 128.537C397.151 129.357 393.869 130.417 390.782 131.727L395.468 142.773ZM403.383 140.213C406.064 139.579 408.931 139.25 412 139.25V127.25C408.069 127.25 404.27 127.671 400.617 128.537L403.383 140.213ZM412 139.25C416.994 139.25 420.134 139.963 421.942 140.867L427.308 130.133C423.116 128.037 417.839 127.25 412 127.25V139.25ZM422.063 140.925C424.339 142 425.567 143.147 426.228 144.158L436.272 137.592C434.1 134.27 430.911 131.833 427.187 130.075L422.063 140.925ZM426.288 144.249C427.168 145.542 427.638 146.851 427.782 148.242L439.718 147.008C439.362 143.566 438.165 140.374 436.212 137.501L426.288 144.249ZM427.806 148.445C428.114 150.673 428.25 152.513 428.25 154H440.25C440.25 151.82 440.053 149.411 439.694 146.805L427.806 148.445ZM428.25 154V251.75H440.25V154H428.25ZM398 104.75C398 103.306 398.302 101.986 398.909 100.721L388.091 95.5286C386.698 98.4303 386 101.527 386 104.75H398ZM398.867 100.808C399.596 99.3501 400.563 98.1065 401.797 97.0409L393.953 87.9591C391.52 90.0602 389.571 92.5665 388.133 95.4417L398.867 100.808ZM401.696 97.1258C403.086 95.9775 404.676 95.0529 406.503 94.36L402.247 83.14C399.24 84.2804 396.497 85.8558 394.054 87.8742L401.696 97.1258ZM406.441 94.3833C408.219 93.7313 410.221 93.375 412.5 93.375V81.375C408.946 81.375 405.531 81.9354 402.309 83.1167L406.441 94.3833ZM412.5 93.375C414.676 93.375 416.573 93.7249 418.247 94.36L422.503 83.14C419.344 81.9418 415.99 81.375 412.5 81.375V93.375ZM418.309 94.3833C420.197 95.0755 421.72 95.9754 422.953 97.0409L430.797 87.9591C428.364 85.8579 425.553 84.2579 422.441 83.1167L418.309 94.3833ZM422.953 97.0409C424.149 98.074 425.041 99.2613 425.677 100.639L436.573 95.6106C435.209 92.6554 433.267 90.0927 430.797 87.9591L422.953 97.0409ZM425.802 100.893C426.443 102.127 426.75 103.387 426.75 104.75H438.75C438.75 101.447 437.973 98.2895 436.448 95.3569L425.802 100.893ZM426.75 104.75C426.75 106.232 426.427 107.529 425.802 108.732L436.448 114.268C437.989 111.304 438.75 108.101 438.75 104.75H426.75ZM425.716 108.904C425.09 110.208 424.193 111.388 422.953 112.459L430.797 121.541C433.224 119.445 435.16 116.959 436.534 114.096L425.716 108.904ZM423.076 112.356C421.821 113.383 420.258 114.277 418.309 114.992L422.441 126.258C425.492 125.139 428.262 123.617 430.674 121.644L423.076 112.356ZM418.247 115.015C416.573 115.65 414.676 116 412.5 116V128C415.99 128 419.344 127.433 422.503 126.235L418.247 115.015ZM412.5 116C410.221 116 408.219 115.644 406.441 114.992L402.309 126.258C405.531 127.44 408.946 128 412.5 128V116ZM406.503 115.015C404.616 114.299 402.985 113.38 401.573 112.275L394.177 121.725C396.598 123.62 399.301 125.117 402.247 126.235L406.503 115.015ZM401.797 112.459C400.52 111.357 399.545 110.119 398.823 108.732L388.177 114.268C389.622 117.047 391.563 119.477 393.953 121.541L401.797 112.459ZM398.909 108.904C398.316 107.668 398 106.31 398 104.75H386C386 108.023 386.684 111.166 388.091 114.096L398.909 108.904ZM500.5 144L498.852 138.231L498.814 138.242L498.776 138.253L500.5 144ZM496 146.5L499.784 151.157L499.869 151.088L499.951 151.015L496 146.5ZM492.875 150.75L498.347 153.212L498.369 153.163L498.39 153.114L492.875 150.75ZM495.25 166.5L490.376 169.999L490.427 170.07L490.48 170.14L495.25 166.5ZM504.125 176.5L499.882 180.743L499.933 180.793L499.985 180.842L504.125 176.5ZM515.625 187.25L511.567 191.669L511.613 191.712L511.661 191.754L515.625 187.25ZM527.125 199L522.531 202.859L522.572 202.909L522.615 202.958L527.125 199ZM536 212.125L530.633 214.808L530.652 214.846L530.672 214.884L536 212.125ZM536.5 243.125L531.021 240.679L531.003 240.72L530.985 240.761L536.5 243.125ZM527.75 255L523.87 250.423L523.845 250.445L523.82 250.466L527.75 255ZM514 262.5L515.79 268.227L515.817 268.218L515.845 268.209L514 262.5ZM480.5 262.625L478.482 268.275L478.527 268.292L478.572 268.307L480.5 262.625ZM468 256.625L464.645 261.599L464.711 261.644L464.779 261.687L468 256.625ZM458.75 249L454.441 253.175L458.75 249ZM452.75 241.75L449.263 236.868L444.577 240.214L447.728 245.033L452.75 241.75ZM457.125 238.625L461.659 234.695L458.082 230.568L453.638 233.743L457.125 238.625ZM461.25 242.75L457.236 247.21L457.299 247.267L457.364 247.322L461.25 242.75ZM466.75 246.75L463.57 251.838L463.616 251.867L463.663 251.895L466.75 246.75ZM473.375 249.875L471.357 255.525L471.447 255.558L471.539 255.587L473.375 249.875ZM495.25 246.75L498.816 251.575L498.85 251.55L498.883 251.525L495.25 246.75ZM497.875 224.125L492.752 227.249L492.769 227.277L492.787 227.305L497.875 224.125ZM479.75 202.5L484.086 198.353L479.75 202.5ZM461.625 150.75L456.375 147.846L456.351 147.889L456.328 147.932L461.625 150.75ZM470.125 141L466.616 136.133L466.589 136.153L466.562 136.173L470.125 141ZM482.25 135.25L483.856 141.031L483.891 141.021L483.926 141.011L482.25 135.25ZM523.375 139.375L520.137 144.426L520.212 144.474L520.288 144.52L523.375 139.375ZM531 147L525.782 149.962L525.812 150.014L525.843 150.066L531 147ZM513.625 167.25L509.703 171.791L509.813 171.886L509.927 171.975L513.625 167.25ZM512.125 156.75L507.702 152.696L507.606 152.8L507.516 152.909L512.125 156.75ZM515.125 154.375L517.97 159.658L518.122 159.576L518.27 159.485L515.125 154.375ZM518 152.75L520.683 158.117L520.779 158.069L520.873 158.017L518 152.75ZM515.625 145.375L512.667 150.595L512.734 150.633L512.801 150.669L515.625 145.375ZM506 137.25C503.555 137.25 501.165 137.57 498.852 138.231L502.148 149.769C503.335 149.43 504.611 149.25 506 149.25V137.25ZM498.776 138.253C496.272 139.004 494.016 140.263 492.049 141.985L499.951 151.015C500.651 150.403 501.395 149.996 502.224 149.747L498.776 138.253ZM492.216 141.843C490.05 143.604 488.451 145.842 487.36 148.386L498.39 153.114C498.799 152.158 499.283 151.563 499.784 151.157L492.216 141.843ZM487.403 148.288C486.223 150.911 485.75 153.794 485.75 156.75H497.75C497.75 155.039 498.027 153.922 498.347 153.212L487.403 148.288ZM485.75 156.75C485.75 161.521 487.482 165.969 490.376 169.999L500.124 163.001C498.351 160.531 497.75 158.479 497.75 156.75H485.75ZM490.48 170.14C493.092 173.563 496.237 177.097 499.882 180.743L508.368 172.257C505.013 168.903 502.241 165.771 500.02 162.86L490.48 170.14ZM499.985 180.842C503.598 184.288 507.459 187.897 511.567 191.669L519.683 182.831C515.624 179.103 511.819 175.546 508.265 172.158L499.985 180.842ZM511.661 191.754C515.606 195.226 519.228 198.928 522.531 202.859L531.719 195.141C528.022 190.739 523.977 186.607 519.589 182.746L511.661 191.754ZM522.615 202.958C525.874 206.671 528.539 210.62 530.633 214.808L541.367 209.442C538.794 204.297 535.543 199.496 531.635 195.042L522.615 202.958ZM530.672 214.884C532.64 218.685 533.625 222.737 533.625 227.125H545.625C545.625 220.846 544.193 214.898 541.328 209.366L530.672 214.884ZM533.625 227.125C533.625 232.427 532.706 236.904 531.021 240.679L541.979 245.571C544.46 240.012 545.625 233.823 545.625 227.125H533.625ZM530.985 240.761C529.347 244.583 526.987 247.781 523.87 250.423L531.63 259.577C536.18 255.719 539.653 251 542.015 245.489L530.985 240.761ZM523.82 250.466C520.763 253.116 516.917 255.252 512.155 256.791L515.845 268.209C521.916 266.248 527.237 263.384 531.68 259.534L523.82 250.466ZM512.21 256.773C507.549 258.23 502.207 259 496.125 259V271C503.21 271 509.785 270.103 515.79 268.227L512.21 256.773ZM496.125 259C490.924 259 486.38 258.284 482.428 256.943L478.572 268.307C483.954 270.133 489.826 271 496.125 271V259ZM482.518 256.975C478.216 255.438 474.462 253.625 471.221 251.563L464.779 261.687C468.872 264.292 473.451 266.479 478.482 268.275L482.518 256.975ZM471.355 251.651C468.062 249.43 465.311 247.149 463.059 244.825L454.441 253.175C457.356 256.184 460.772 258.987 464.645 261.599L471.355 251.651ZM463.059 244.825C460.638 242.325 458.912 240.21 457.772 238.467L447.728 245.033C449.422 247.624 451.696 250.341 454.441 253.175L463.059 244.825ZM456.237 246.632L460.612 243.507L453.638 233.743L449.263 236.868L456.237 246.632ZM452.591 242.555C453.882 244.044 455.445 245.598 457.236 247.21L465.264 238.29C463.721 236.902 462.535 235.706 461.659 234.695L452.591 242.555ZM457.364 247.322C459.27 248.941 461.342 250.445 463.57 251.838L469.93 241.662C468.158 240.555 466.564 239.392 465.136 238.178L457.364 247.322ZM463.663 251.895C466.092 253.352 468.659 254.562 471.357 255.525L475.393 244.225C473.424 243.521 471.575 242.648 469.837 241.605L463.663 251.895ZM471.539 255.587C474.457 256.525 477.451 257 480.5 257V245C478.715 245 476.96 244.725 475.211 244.163L471.539 255.587ZM480.5 257C487.448 257 493.71 255.349 498.816 251.575L491.684 241.925C489.124 243.817 485.552 245 480.5 245V257ZM498.883 251.525C504.482 247.265 507 241.043 507 233.875H495C495 238.041 493.685 240.401 491.617 241.975L498.883 251.525ZM507 233.875C507 229.341 505.499 225.002 502.963 220.945L492.787 227.305C494.418 229.914 495 232.076 495 233.875H507ZM502.998 221.001C500.7 217.232 497.853 213.45 494.496 209.652L485.504 217.598C488.481 220.967 490.884 224.184 492.752 227.249L502.998 221.001ZM494.496 209.652C491.272 206.003 487.801 202.237 484.086 198.353L475.414 206.647C479.032 210.43 482.395 214.08 485.504 217.598L494.496 209.652ZM484.086 198.353C480.559 194.665 477.278 190.863 474.241 186.948L464.759 194.302C468.056 198.553 471.608 202.668 475.414 206.647L484.086 198.353ZM474.241 186.948C471.315 183.175 468.919 179.325 467.033 175.4L456.217 180.6C458.497 185.342 461.352 189.909 464.759 194.302L474.241 186.948ZM467.033 175.4C465.327 171.853 464.5 168.239 464.5 164.5H452.5C452.5 170.094 453.756 175.481 456.217 180.6L467.033 175.4ZM464.5 164.5C464.5 160.053 465.378 156.471 466.922 153.568L456.328 147.932C453.705 152.863 452.5 158.447 452.5 164.5H464.5ZM466.875 153.654C468.637 150.47 470.903 147.883 473.688 145.827L466.562 136.173C462.347 139.283 458.947 143.197 456.375 147.846L466.875 153.654ZM473.634 145.867C476.609 143.722 480 142.102 483.856 141.031L480.644 129.469C475.5 130.898 470.807 133.112 466.616 136.133L473.634 145.867ZM483.926 141.011C487.958 139.838 492.102 139.25 496.375 139.25V127.25C490.982 127.25 485.709 127.995 480.574 129.489L483.926 141.011ZM496.375 139.25C501.607 139.25 506.253 139.719 510.346 140.612L512.904 128.888C507.83 127.781 502.31 127.25 496.375 127.25V139.25ZM510.346 140.612C514.379 141.492 517.6 142.8 520.137 144.426L526.613 134.324C522.65 131.783 518.038 130.008 512.904 128.888L510.346 140.612ZM520.288 144.52C522.822 146.041 524.591 147.863 525.782 149.962L536.218 144.038C533.909 139.971 530.594 136.709 526.462 134.23L520.288 144.52ZM525.843 150.066C527.052 152.099 527.75 154.594 527.75 157.75H539.75C539.75 152.74 538.615 148.067 536.157 143.934L525.843 150.066ZM527.75 157.75C527.75 159.463 527.238 160.785 526.149 162.004L535.101 169.996C538.179 166.548 539.75 162.371 539.75 157.75H527.75ZM526.149 162.004C525.43 162.81 524.286 163.5 521.875 163.5V175.5C526.964 175.5 531.653 173.857 535.101 169.996L526.149 162.004ZM521.875 163.5C519.023 163.5 517.788 162.889 517.323 162.525L509.927 171.975C513.296 174.611 517.56 175.5 521.875 175.5V163.5ZM517.547 162.709C517.176 162.389 516.875 161.996 516.875 160.875H504.875C504.875 165.088 506.408 168.945 509.703 171.791L517.547 162.709ZM516.875 160.875C516.875 160.466 516.925 160.287 516.93 160.271C516.931 160.266 516.921 160.302 516.888 160.365C516.854 160.429 516.804 160.508 516.734 160.591L507.516 152.909C505.516 155.309 504.875 158.206 504.875 160.875H516.875ZM516.548 160.804C517.057 160.249 517.535 159.892 517.97 159.658L512.28 149.092C510.548 150.025 509.026 151.251 507.702 152.696L516.548 160.804ZM518.27 159.485C519.253 158.88 520.052 158.432 520.683 158.117L515.317 147.383C514.281 147.901 513.164 148.537 511.98 149.265L518.27 159.485ZM520.873 158.017C522.861 156.933 525.375 154.648 525.375 150.875H513.375C513.375 149.929 513.694 149.038 514.193 148.358C514.633 147.758 515.067 147.516 515.127 147.483L520.873 158.017ZM525.375 150.875C525.375 145.811 522.403 142.19 518.449 140.081L512.801 150.669C513.427 151.003 513.532 151.206 513.48 151.13C513.453 151.09 513.418 151.023 513.394 150.943C513.37 150.865 513.375 150.833 513.375 150.875H525.375ZM518.583 140.155C514.912 138.075 510.593 137.25 506 137.25V149.25C509.24 149.25 511.338 149.842 512.667 150.595L518.583 140.155ZM555.25 105.5L550.548 101.773L550.534 101.791L550.52 101.808L555.25 105.5ZM577.375 88.75L579.902 94.1921L579.922 94.1828L579.941 94.1734L577.375 88.75ZM669.625 76.375L669.469 82.373L669.508 82.374L669.547 82.3745L669.625 76.375ZM687.125 76.875L686.84 82.8682L686.844 82.8684L687.125 76.875ZM709.25 78.875L710.705 73.0541L710.672 73.046L710.64 73.0382L709.25 78.875ZM716.5 84.375L710.597 85.4483L710.606 85.5001L710.617 85.5517L716.5 84.375ZM716.375 90.75L722.242 92.0072L722.25 91.967L722.258 91.9267L716.375 90.75ZM715.25 94.125L720.617 96.8083L720.659 96.7244L720.698 96.6394L715.25 94.125ZM708.375 97L704.691 101.736L704.811 101.829L704.934 101.915L708.375 97ZM705 94.75L701.74 99.7874L701.805 99.8294L701.871 99.8697L705 94.75ZM699.125 91.875L696.831 97.4191L696.864 97.4327L696.897 97.4459L699.125 91.875ZM689.25 89L687.936 94.8543L687.948 94.8571L687.961 94.8599L689.25 89ZM673.875 86.75L673.302 92.7226L673.31 92.7233L673.875 86.75ZM651.75 85.875V79.875H645.75V85.875H651.75ZM651.75 166H645.75V172H651.75V166ZM703.625 166H709.625V160H703.625V166ZM703.625 177V183H709.625V177H703.625ZM651.75 177V171H645.75V177H651.75ZM653.5 236L647.952 238.285L647.964 238.314L647.977 238.343L653.5 236ZM666.25 246.875L664.644 252.656L664.664 252.662L664.685 252.667L666.25 246.875ZM689.25 246.875L690.404 252.763L690.46 252.752L690.515 252.74L689.25 246.875ZM701.25 243.5L699.279 237.833L699.259 237.84L699.24 237.847L701.25 243.5ZM711.625 239L708.831 233.69L708.801 233.706L708.772 233.722L711.625 239ZM719.25 234.125L723.694 230.094L719.846 225.851L715.429 229.499L719.25 234.125ZM724.125 239.5L727.873 244.185L732.858 240.197L728.569 235.469L724.125 239.5ZM715.75 246.375L719.525 251.038L719.558 251.012L719.591 250.984L715.75 246.375ZM702.875 254.75L700.02 249.473L700.002 249.483L699.983 249.493L702.875 254.75ZM685.25 262L686.974 267.747L686.997 267.74L687.019 267.733L685.25 262ZM652.75 264.5L653.293 258.525L653.23 258.519L653.168 258.515L652.75 264.5ZM641.625 262.875L640.23 268.71L640.29 268.725L640.35 268.738L641.625 262.875ZM630.25 259L627.666 264.415L627.739 264.45L627.813 264.483L630.25 259ZM620.375 252.125L616.132 256.368L616.163 256.398L616.194 256.429L620.375 252.125ZM613.375 241.75L607.843 244.073L607.871 244.141L607.901 244.208L613.375 241.75ZM610.75 177H616.75V171H610.75V177ZM591.25 177H585.25V183H591.25V177ZM591.25 166V160H585.25V166H591.25ZM610.75 166V172H616.75V166H610.75ZM610.75 87.375H616.75V80.7862L610.19 81.4012L610.75 87.375ZM601.5 88.875L602.649 94.7639L602.703 94.7534L602.757 94.7418L601.5 88.875ZM590.875 91.875L592.851 97.5402L592.888 97.5272L592.925 97.5138L590.875 91.875ZM564.125 110.375L558.98 107.288L558.967 107.31L558.953 107.333L564.125 110.375ZM562.625 126L557.095 128.328L557.146 128.45L557.203 128.569L562.625 126ZM565.125 129.625L561.089 134.065L561.205 134.17L561.326 134.269L565.125 129.625ZM567.875 131.125L566.296 136.914L566.589 136.993L566.889 137.043L567.875 131.125ZM575.125 130.375L577.808 135.742L577.939 135.676L578.067 135.604L575.125 130.375ZM578.75 128.125L582.165 133.058L582.289 132.972L582.408 132.881L578.75 128.125ZM581.75 125.875L585.279 130.727L585.315 130.701L585.35 130.675L581.75 125.875ZM588.25 125.5L585.736 130.948L585.979 131.06L586.232 131.15L588.25 125.5ZM591.375 127.625L586.952 131.679L587.04 131.775L587.132 131.868L591.375 127.625ZM593.875 131.625L588.304 133.853L588.324 133.904L588.345 133.953L593.875 131.625ZM592.875 146.25L587.581 143.426L587.563 143.46L587.546 143.493L592.875 146.25ZM587.875 152.25L584.245 147.473L584.197 147.509L584.151 147.546L587.875 152.25ZM580.875 155.875L582.548 161.637L582.606 161.62L582.665 161.602L580.875 155.875ZM562.25 155L559.8 160.477L559.886 160.515L559.973 160.551L562.25 155ZM549 140.875L543.353 142.902L543.361 142.926L543.37 142.949L549 140.875ZM553.25 130.375C553.25 121.787 555.572 114.84 559.98 109.192L550.52 101.808C544.262 109.827 541.25 119.463 541.25 130.375H553.25ZM559.952 109.227C564.691 103.248 571.265 98.2019 579.902 94.1921L574.848 83.3079C564.818 87.9648 556.642 94.085 550.548 101.773L559.952 109.227ZM579.941 94.1734C588.667 90.0445 598.979 86.9775 610.954 85.0486L609.046 73.2014C596.188 75.2725 584.75 78.6221 574.809 83.3266L579.941 94.1734ZM610.954 85.0486C623.019 83.1054 635.989 82.125 649.875 82.125V70.125C635.428 70.125 621.815 71.1446 609.046 73.2014L610.954 85.0486ZM649.875 82.125C656.576 82.125 663.107 82.2077 669.469 82.373L669.781 70.377C663.31 70.2089 656.674 70.125 649.875 70.125V82.125ZM669.547 82.3745C675.909 82.4571 681.672 82.6221 686.84 82.8682L687.41 70.8818C682.078 70.6279 676.174 70.4595 669.703 70.3755L669.547 82.3745ZM686.844 82.8684C692.126 83.116 696.625 83.4031 700.355 83.7274L701.395 71.7726C697.458 71.4302 692.791 71.134 687.406 70.8816L686.844 82.8684ZM700.355 83.7274C704.148 84.0572 706.567 84.4039 707.86 84.7118L710.64 73.0382C708.433 72.5127 705.269 72.1094 701.395 71.7726L700.355 83.7274ZM707.795 84.6959C709.237 85.0564 710.108 85.3871 710.567 85.6166L715.933 74.8834C714.392 74.1129 712.596 73.5269 710.705 73.0541L707.795 84.6959ZM710.567 85.6166C710.773 85.7199 710.865 85.7876 710.879 85.7986C710.891 85.8078 710.811 85.7481 710.7 85.6L720.3 78.4C719.084 76.7783 717.495 75.6642 715.933 74.8834L710.567 85.6166ZM710.7 85.6C710.647 85.5289 710.613 85.4644 710.595 85.4221C710.578 85.3821 710.585 85.3847 710.597 85.4483L722.403 83.3017C722.09 81.5779 721.422 79.8959 720.3 78.4L710.7 85.6ZM710.617 85.5517C710.683 85.8846 710.75 86.4686 710.75 87.375H722.75C722.75 85.9481 722.65 84.5321 722.383 83.1983L710.617 85.5517ZM710.75 87.375C710.75 87.8895 710.684 88.6108 710.492 89.5733L722.258 91.9267C722.566 90.3892 722.75 88.8605 722.75 87.375H710.75ZM710.508 89.4928C710.351 90.2262 710.117 90.9296 709.802 91.6106L720.698 96.6394C721.383 95.1537 721.899 93.6071 722.242 92.0072L710.508 89.4928ZM709.883 91.4417C709.656 91.8963 709.402 92.2375 709.132 92.5074L717.618 100.993C718.848 99.7625 719.844 98.3537 720.617 96.8083L709.883 91.4417ZM709.132 92.5074C709.28 92.3594 709.523 92.1756 709.853 92.0405C710.181 91.9064 710.461 91.875 710.625 91.875V103.875C713.261 103.875 715.716 102.895 717.618 100.993L709.132 92.5074ZM710.625 91.875C711.172 91.875 711.559 91.9948 711.737 92.0642C711.909 92.1311 711.937 92.1696 711.816 92.0846L704.934 101.915C706.279 102.857 708.235 103.875 710.625 103.875V91.875ZM712.059 92.2639C711.041 91.4721 709.689 90.5837 708.129 89.6303L701.871 99.8697C703.311 100.75 704.209 101.361 704.691 101.736L712.059 92.2639ZM708.26 89.7126C706.384 88.499 704.028 87.374 701.353 86.3041L696.897 97.4459C699.222 98.376 700.783 99.1677 701.74 99.7874L708.26 89.7126ZM701.419 86.3309C698.539 85.1393 694.864 84.0915 690.539 83.1401L687.961 94.8599C691.97 95.7418 694.877 96.6107 696.831 97.4191L701.419 86.3309ZM690.564 83.1457C686.147 82.1542 680.751 81.3737 674.44 80.7767L673.31 92.7233C679.332 93.293 684.186 94.0125 687.936 94.8543L690.564 83.1457ZM674.448 80.7774C668.114 80.17 660.536 79.875 651.75 79.875V91.875C660.297 91.875 667.47 92.1633 673.302 92.7226L674.448 80.7774ZM645.75 85.875V166H657.75V85.875H645.75ZM651.75 172H703.625V160H651.75V172ZM697.625 166V177H709.625V166H697.625ZM703.625 171H651.75V183H703.625V171ZM645.75 177V225.875H657.75V177H645.75ZM645.75 225.875C645.75 230.366 646.416 234.555 647.952 238.285L659.048 233.715C658.25 231.778 657.75 229.217 657.75 225.875H645.75ZM647.977 238.343C649.49 241.911 651.703 244.984 654.624 247.455L662.376 238.295C660.963 237.1 659.843 235.589 659.023 233.657L647.977 238.343ZM654.624 247.455C657.514 249.9 660.892 251.614 664.644 252.656L667.856 241.094C665.608 240.47 663.819 239.516 662.376 238.295L654.624 247.455ZM664.685 252.667C668.358 253.66 672.311 254.125 676.5 254.125V242.125C673.189 242.125 670.309 241.757 667.815 241.083L664.685 252.667ZM676.5 254.125C681.145 254.125 685.781 253.669 690.404 252.763L688.096 240.987C684.219 241.747 680.355 242.125 676.5 242.125V254.125ZM690.515 252.74C694.995 251.774 699.245 250.581 703.26 249.153L699.24 237.847C695.755 239.086 692.005 240.143 687.985 241.01L690.515 252.74ZM703.221 249.167C707.312 247.744 711.072 246.12 714.478 244.278L708.772 233.722C706.012 235.214 702.855 236.589 699.279 237.833L703.221 249.167ZM714.419 244.31C717.807 242.527 720.732 240.683 723.071 238.751L715.429 229.499C713.935 230.733 711.777 232.14 708.831 233.69L714.419 244.31ZM714.806 238.156L719.681 243.531L728.569 235.469L723.694 230.094L714.806 238.156ZM720.377 234.815C718.248 236.518 715.421 238.839 711.909 241.766L719.591 250.984C723.079 248.078 725.835 245.816 727.873 244.185L720.377 234.815ZM711.975 241.712C708.829 244.258 704.865 246.852 700.02 249.473L705.73 260.027C711.052 257.148 715.671 254.159 719.525 251.038L711.975 241.712ZM699.983 249.493C695.413 252.007 689.929 254.277 683.481 256.267L687.019 267.733C694.071 265.557 700.337 262.993 705.767 260.007L699.983 249.493ZM683.526 256.253C677.526 258.053 670.54 259 662.5 259V271C671.46 271 679.641 269.947 686.974 267.747L683.526 256.253ZM662.5 259C659.892 259 656.829 258.846 653.293 258.525L652.207 270.475C656.004 270.821 659.441 271 662.5 271V259ZM653.168 258.515C649.897 258.286 646.476 257.789 642.9 257.012L640.35 268.738C644.441 269.627 648.436 270.214 652.332 270.485L653.168 258.515ZM643.02 257.04C639.559 256.212 636.115 255.041 632.687 253.517L627.813 264.483C631.885 266.293 636.025 267.705 640.23 268.71L643.02 257.04ZM632.834 253.585C629.757 252.116 627.005 250.2 624.556 247.821L616.194 256.429C619.579 259.716 623.409 262.384 627.666 264.415L632.834 253.585ZM624.618 247.882C622.356 245.621 620.418 242.788 618.849 239.292L607.901 244.208C609.998 248.878 612.727 252.962 616.132 256.368L624.618 247.882ZM618.907 239.427C617.538 236.166 616.75 232.036 616.75 226.875H604.75C604.75 233.214 605.712 239 607.843 244.073L618.907 239.427ZM616.75 226.875V177H604.75V226.875H616.75ZM610.75 171H591.25V183H610.75V171ZM597.25 177V166H585.25V177H597.25ZM591.25 172H610.75V160H591.25V172ZM616.75 166V87.375H604.75V166H616.75ZM610.19 81.4012C607.226 81.679 603.902 82.2241 600.243 83.0082L602.757 94.7418C606.098 94.0259 608.94 93.571 611.31 93.3488L610.19 81.4012ZM600.351 82.9861C596.594 83.7192 592.75 84.8087 588.825 86.2362L592.925 97.5138C596.333 96.2746 599.573 95.3642 602.649 94.7639L600.351 82.9861ZM588.899 86.2098C585.066 87.5467 581.289 89.1474 577.567 91.0084L582.933 101.742C586.211 100.103 589.517 98.7033 592.851 97.5402L588.899 86.2098ZM577.567 91.0084C573.673 92.9553 570.139 95.2556 566.993 97.9249L574.757 107.075C577.111 105.078 579.827 103.295 582.933 101.742L577.567 91.0084ZM566.993 97.9249C563.774 100.656 561.087 103.777 558.98 107.288L569.27 113.462C570.663 111.14 572.476 109.01 574.757 107.075L566.993 97.9249ZM558.953 107.333C556.736 111.102 555.625 115.238 555.625 119.625H567.625C567.625 117.346 568.18 115.315 569.297 113.417L558.953 107.333ZM555.625 119.625C555.625 122.697 555.995 125.715 557.095 128.328L568.155 123.672C567.922 123.118 567.625 121.887 567.625 119.625H555.625ZM557.203 128.569C558.159 130.589 559.405 132.534 561.089 134.065L569.161 125.185C569.011 125.049 568.591 124.578 568.047 123.431L557.203 128.569ZM561.326 134.269C562.738 135.424 564.393 136.395 566.296 136.914L569.454 125.336C569.524 125.355 569.345 125.326 568.924 124.981L561.326 134.269ZM566.889 137.043C567.884 137.209 569.034 137.375 570 137.375V125.375C570.085 125.375 570.117 125.379 570.076 125.376C570.04 125.373 569.97 125.367 569.857 125.354C569.629 125.327 569.302 125.28 568.861 125.207L566.889 137.043ZM570 137.375C572.667 137.375 575.378 136.957 577.808 135.742L572.442 125.008C572.205 125.127 571.5 125.375 570 125.375V137.375ZM578.067 135.604C579.537 134.777 580.907 133.929 582.165 133.058L575.335 123.192C574.427 123.821 573.38 124.473 572.183 125.146L578.067 135.604ZM582.408 132.881C583.457 132.074 584.414 131.357 585.279 130.727L578.221 121.023C577.253 121.727 576.209 122.51 575.092 123.369L582.408 132.881ZM585.35 130.675C585.359 130.668 585.353 130.674 585.331 130.686C585.308 130.697 585.278 130.711 585.241 130.723C585.205 130.736 585.172 130.743 585.147 130.747C585.122 130.751 585.113 130.75 585.125 130.75V118.75C582.577 118.75 580.189 119.546 578.15 121.075L585.35 130.675ZM585.125 130.75C585.125 130.75 585.125 130.75 585.125 130.75C585.125 130.75 585.125 130.75 585.125 130.75C585.125 130.75 585.125 130.75 585.125 130.75C585.125 130.75 585.125 130.75 585.125 130.75C585.126 130.75 585.126 130.75 585.127 130.75C585.128 130.75 585.129 130.75 585.132 130.75C585.136 130.751 585.143 130.751 585.154 130.752C585.174 130.755 585.208 130.76 585.256 130.772C585.353 130.795 585.512 130.844 585.736 130.948L590.764 120.052C589.043 119.258 587.145 118.75 585.125 118.75V130.75ZM586.232 131.15C586.394 131.208 586.631 131.329 586.952 131.679L595.798 123.571C594.285 121.921 592.44 120.625 590.268 119.85L586.232 131.15ZM587.132 131.868C587.426 132.161 587.861 132.746 588.304 133.853L599.446 129.397C598.556 127.171 597.324 125.089 595.618 123.382L587.132 131.868ZM588.345 133.953C588.612 134.587 588.875 135.697 588.875 137.5H600.875C600.875 134.636 600.472 131.83 599.405 129.297L588.345 133.953ZM588.875 137.5C588.875 140.022 588.375 141.937 587.581 143.426L598.169 149.074C600.041 145.563 600.875 141.644 600.875 137.5H588.875ZM587.546 143.493C586.688 145.151 585.59 146.45 584.245 147.473L591.505 157.027C594.326 154.883 596.562 152.182 598.204 149.007L587.546 143.493ZM584.151 147.546C582.78 148.631 581.117 149.513 579.085 150.148L582.665 161.602C585.966 160.57 588.97 159.036 591.599 156.954L584.151 147.546ZM579.202 150.113C577.14 150.712 575.119 151 573.125 151V163C576.297 163 579.443 162.538 582.548 161.637L579.202 150.113ZM573.125 151C569.799 151 566.961 150.448 564.527 149.449L559.973 160.551C564.039 162.219 568.451 163 573.125 163V151ZM564.7 149.523C562.229 148.418 560.191 146.96 558.516 145.161L549.734 153.339C552.559 156.373 555.937 158.749 559.8 160.477L564.7 149.523ZM558.516 145.161C556.821 143.34 555.528 141.237 554.63 138.801L543.37 142.949C544.806 146.846 546.929 150.326 549.734 153.339L558.516 145.161ZM554.647 138.848C553.733 136.302 553.25 133.493 553.25 130.375H541.25C541.25 134.757 541.933 138.948 543.353 142.902L554.647 138.848ZM779.75 159.625H773.75V179.731L784.769 162.913L779.75 159.625ZM789.875 146.5L794.302 150.55L794.318 150.532L794.335 150.514L789.875 146.5ZM800.125 137.375L796.847 132.349L796.796 132.383L796.745 132.418L800.125 137.375ZM822 137.125L817.618 141.224L817.652 141.26L817.686 141.295L822 137.125ZM824.875 156L818.978 154.894L818.964 154.969L818.952 155.045L824.875 156ZM822.25 165.5V171.5H826.485L827.903 167.51L822.25 165.5ZM818.75 165.5L812.859 166.64L813.8 171.5H818.75V165.5ZM815.25 159.125L811.107 163.465L811.16 163.516L811.214 163.565L815.25 159.125ZM799.625 158L801.691 163.633L801.772 163.603L801.853 163.571L799.625 158ZM792.25 161.5L789.216 156.324L789.176 156.347L789.136 156.371L792.25 161.5ZM785.5 166.125L781.842 161.369L781.796 161.404L781.752 161.44L785.5 166.125ZM779.75 170.875L775.845 166.319L773.75 168.115V170.875H779.75ZM776.75 260.125L772.507 255.882L772.439 255.951L772.373 256.021L776.75 260.125ZM771 263.5L768.994 257.845L768.882 257.885L768.772 257.929L771 263.5ZM750.125 263.375L752.445 257.842L752.4 257.823L752.353 257.804L750.125 263.375ZM744.375 259.75L740.006 263.862L744.375 259.75ZM739.625 149L734.459 152.052L734.542 152.193L734.633 152.328L739.625 149ZM727.125 149.125L722.531 152.984L726.266 157.431L730.832 153.843L727.125 149.125ZM724.5 146L720.679 141.374L716.015 145.227L719.906 149.859L724.5 146ZM730.875 141.375L734.12 146.422L734.141 146.408L734.163 146.394L730.875 141.375ZM766.625 134.75L764.397 140.321L764.507 140.365L764.619 140.405L766.625 134.75ZM772.875 138.5L768.632 142.743L768.744 142.854L768.861 142.96L772.875 138.5ZM778.75 149.5L772.876 150.724L772.907 150.87L772.944 151.015L778.75 149.5ZM779.625 155.125L773.631 155.397L773.632 155.41L779.625 155.125ZM784.769 162.913C787.774 158.326 790.954 154.209 794.302 150.55L785.448 142.45C781.629 146.624 778.059 151.257 774.731 156.337L784.769 162.913ZM794.335 150.514C795.691 149.007 797.17 147.527 798.775 146.074L790.725 137.176C788.83 138.89 787.059 140.659 785.415 142.486L794.335 150.514ZM798.775 146.074C800.335 144.663 801.912 143.419 803.505 142.332L796.745 132.418C794.671 133.831 792.665 135.42 790.725 137.176L798.775 146.074ZM803.403 142.401C804.978 141.373 806.546 140.578 808.107 139.993L803.893 128.757C801.454 129.672 799.106 130.877 796.847 132.349L803.403 142.401ZM808.107 139.993C809.479 139.478 810.767 139.25 812 139.25V127.25C809.233 127.25 806.521 127.772 803.893 128.757L808.107 139.993ZM812 139.25C814.951 139.25 816.562 140.094 817.618 141.224L826.382 133.026C822.605 128.989 817.549 127.25 812 127.25V139.25ZM817.686 141.295C818.712 142.356 819.625 144.212 819.625 147.75H831.625C831.625 142.121 830.122 136.894 826.314 132.955L817.686 141.295ZM819.625 147.75C819.625 150.229 819.406 152.608 818.978 154.894L830.772 157.106C831.344 154.059 831.625 150.938 831.625 147.75H819.625ZM818.952 155.045C818.614 157.135 817.864 159.925 816.597 163.49L827.903 167.51C829.303 163.575 830.302 160.032 830.798 156.955L818.952 155.045ZM822.25 159.5H818.75V171.5H822.25V159.5ZM824.641 164.36C823.911 160.589 822.139 157.279 819.286 154.685L811.214 163.565C812.028 164.305 812.589 165.244 812.859 166.64L824.641 164.36ZM819.393 154.785C816.076 151.619 811.698 150.5 807.25 150.5V162.5C809.802 162.5 810.757 163.131 811.107 163.465L819.393 154.785ZM807.25 150.5C803.871 150.5 800.575 151.158 797.397 152.429L801.853 163.571C803.675 162.842 805.462 162.5 807.25 162.5V150.5ZM797.559 152.367C794.707 153.413 791.925 154.736 789.216 156.324L795.284 166.676C797.408 165.431 799.543 164.421 801.691 163.633L797.559 152.367ZM789.136 156.371C786.614 157.902 784.183 159.569 781.842 161.369L789.158 170.881C791.151 169.348 793.219 167.931 795.364 166.629L789.136 156.371ZM781.752 161.44C779.624 163.142 777.654 164.769 775.845 166.319L783.655 175.431C785.346 173.981 787.21 172.441 789.248 170.81L781.752 161.44ZM773.75 170.875V252H785.75V170.875H773.75ZM773.75 252C773.75 252.506 773.667 253.339 773.393 254.573L785.107 257.177C785.499 255.411 785.75 253.661 785.75 252H773.75ZM773.393 254.573C773.358 254.73 773.218 255.172 772.507 255.882L780.993 264.368C782.949 262.411 784.475 260.02 785.107 257.177L773.393 254.573ZM772.373 256.021C772.024 256.394 771.088 257.102 768.994 257.845L773.006 269.155C776.078 268.065 778.976 266.523 781.127 264.229L772.373 256.021ZM768.772 257.929C767.291 258.522 764.704 259 760.625 259V271C765.379 271 769.709 270.478 773.228 269.071L768.772 257.929ZM760.625 259C756.597 259 753.993 258.491 752.445 257.842L747.805 268.908C751.423 270.426 755.82 271 760.625 271V259ZM752.353 257.804C750.372 257.012 749.295 256.223 748.744 255.638L740.006 263.862C742.122 266.11 744.878 267.738 747.897 268.946L752.353 257.804ZM748.744 255.638C747.956 254.801 747.777 254.274 747.732 254.073L736.018 256.677C736.64 259.476 738.127 261.866 740.006 263.862L748.744 255.638ZM747.732 254.073C747.439 252.755 747.375 252.034 747.375 251.75H735.375C735.375 253.299 735.644 254.995 736.018 256.677L747.732 254.073ZM747.375 251.75V155.25H735.375V251.75H747.375ZM747.375 155.25C747.375 151.83 746.535 148.548 744.617 145.672L734.633 152.328C735.048 152.952 735.375 153.836 735.375 155.25H747.375ZM744.791 145.948C742.346 141.81 738.168 140.25 734 140.25V152.25C734.666 152.25 734.849 152.366 734.771 152.328C734.728 152.307 734.655 152.262 734.579 152.191C734.503 152.121 734.466 152.064 734.459 152.052L744.791 145.948ZM734 140.25C731.894 140.25 729.717 140.621 727.692 141.633L733.058 152.367C733.033 152.379 733.273 152.25 734 152.25V140.25ZM727.692 141.633C726.234 142.362 724.807 143.316 723.418 144.407L730.832 153.843C731.777 153.101 732.516 152.638 733.058 152.367L727.692 141.633ZM731.719 145.266L729.094 142.141L719.906 149.859L722.531 152.984L731.719 145.266ZM728.321 150.626C730.035 149.21 731.964 147.808 734.12 146.422L727.63 136.328C725.119 137.942 722.799 139.623 720.679 141.374L728.321 150.626ZM734.163 146.394C736.271 145.013 738.536 143.805 740.968 142.773L736.282 131.727C733.214 133.028 730.313 134.57 727.587 136.356L734.163 146.394ZM740.968 142.773C743.381 141.75 746.016 140.893 748.883 140.213L746.117 128.537C742.651 129.357 739.369 130.417 736.282 131.727L740.968 142.773ZM748.883 140.213C751.564 139.579 754.431 139.25 757.5 139.25V127.25C753.569 127.25 749.77 127.671 746.117 128.537L748.883 140.213ZM757.5 139.25C760.558 139.25 762.797 139.681 764.397 140.321L768.853 129.179C765.453 127.819 761.608 127.25 757.5 127.25V139.25ZM764.619 140.405C766.546 141.088 767.806 141.916 768.632 142.743L777.118 134.257C774.778 131.918 771.871 130.245 768.631 129.095L764.619 140.405ZM768.861 142.96C769.976 143.963 770.778 145.045 771.337 146.214L782.163 141.036C780.888 138.371 779.107 136.037 776.889 134.04L768.861 142.96ZM771.337 146.214C772.054 147.713 772.562 149.214 772.876 150.724L784.624 148.276C784.105 145.786 783.279 143.37 782.163 141.036L771.337 146.214ZM772.944 151.015C773.347 152.557 773.568 154.015 773.631 155.397L785.619 154.853C785.515 152.568 785.153 150.277 784.556 147.985L772.944 151.015ZM773.632 155.41C773.712 157.1 773.75 158.499 773.75 159.625H785.75C785.75 158.251 785.704 156.65 785.618 154.84L773.632 155.41ZM877.125 255.875L871.344 254.269L871.302 254.42L871.268 254.573L877.125 255.875ZM874.5 260.125L870.388 255.756L870.322 255.818L870.257 255.882L874.5 260.125ZM868.5 263.5L866.549 257.826L866.441 257.863L866.334 257.905L868.5 263.5ZM847.625 263.375L850.011 257.87L849.932 257.836L849.853 257.804L847.625 263.375ZM842 259.75L837.368 263.564L837.433 263.643L837.501 263.72L842 259.75ZM839.75 255.375L833.832 256.361L833.858 256.52L833.893 256.677L839.75 255.375ZM837.625 84.25L832.459 87.3024L832.542 87.4426L832.633 87.5782L837.625 84.25ZM828.25 82.25L830.558 87.7885L830.662 87.7451L830.764 87.6978L828.25 82.25ZM825 84.25L820.391 88.0911L824.123 92.5697L828.707 88.9679L825 84.25ZM822.5 81.25L818.679 76.6242L814.033 80.462L817.891 85.0911L822.5 81.25ZM828.875 76.625L832.12 81.6721L832.182 81.6317L832.244 81.5899L828.875 76.625ZM836.5 72.5L834.216 66.9519L834.186 66.9641L834.157 66.9765L836.5 72.5ZM868.125 70.75L865.442 76.1166L865.502 76.1467L865.563 76.1755L868.125 70.75ZM874.75 76.125L869.728 79.4085L869.758 79.4539L869.788 79.4989L874.75 76.125ZM877.25 82.875L871.282 83.4924L871.294 83.6082L871.31 83.7235L877.25 82.875ZM871.75 252C871.75 252.361 871.673 253.085 871.344 254.269L882.906 257.481C883.41 255.665 883.75 253.806 883.75 252H871.75ZM871.268 254.573C871.257 254.621 871.161 255.028 870.388 255.756L878.612 264.494C880.672 262.556 882.326 260.129 882.982 257.177L871.268 254.573ZM870.257 255.882C869.809 256.331 868.745 257.071 866.549 257.826L870.451 269.174C873.589 268.095 876.524 266.586 878.743 264.368L870.257 255.882ZM866.334 257.905C864.729 258.526 862.064 259 858 259V271C862.77 271 867.104 270.474 870.666 269.095L866.334 257.905ZM858 259C853.956 259 851.433 258.486 850.011 257.87L845.239 268.88C848.817 270.431 853.211 271 858 271V259ZM849.853 257.804C847.879 257.014 846.921 256.258 846.499 255.78L837.501 263.72C839.579 266.075 842.371 267.736 845.397 268.946L849.853 257.804ZM846.632 255.936C845.95 255.108 845.699 254.488 845.607 254.073L833.893 256.677C834.467 259.262 835.717 261.559 837.368 263.564L846.632 255.936ZM845.668 254.389C845.442 253.032 845.375 252.192 845.375 251.75H833.375C833.375 253.141 833.558 254.718 833.832 256.361L845.668 254.389ZM845.375 251.75V90.5H833.375V251.75H845.375ZM845.375 90.5C845.375 87.0803 844.535 83.7983 842.617 80.9218L832.633 87.5782C833.048 88.2017 833.375 89.0863 833.375 90.5H845.375ZM842.791 81.1976C840.346 77.06 836.168 75.5 832 75.5V87.5C832.666 87.5 832.849 87.6161 832.771 87.5778C832.728 87.5568 832.655 87.5123 832.579 87.4414C832.503 87.3712 832.466 87.314 832.459 87.3024L842.791 81.1976ZM832 75.5C829.876 75.5 827.741 75.8766 825.736 76.8022L830.764 87.6978C830.926 87.6234 831.291 87.5 832 87.5V75.5ZM825.942 76.7115C824.295 77.398 822.741 78.3942 821.293 79.5321L828.707 88.9679C829.592 88.2724 830.205 87.9353 830.558 87.7885L825.942 76.7115ZM829.609 80.4089L827.109 77.4089L817.891 85.0911L820.391 88.0911L829.609 80.4089ZM826.321 85.8758C828.035 84.4604 829.964 83.0577 832.12 81.6721L825.63 71.5779C823.119 73.1923 820.799 74.8729 818.679 76.6242L826.321 85.8758ZM832.244 81.5899C834.236 80.2382 836.431 79.0467 838.843 78.0235L834.157 66.9765C831.069 68.2866 828.181 69.8451 825.506 71.6601L832.244 81.5899ZM838.784 78.0481C841.308 77.009 844.005 76.1451 846.883 75.4635L844.117 63.7865C840.662 64.6049 837.359 65.6577 834.216 66.9519L838.784 78.0481ZM846.883 75.4635C849.564 74.8285 852.431 74.5 855.5 74.5V62.5C851.569 62.5 847.77 62.9215 844.117 63.7865L846.883 75.4635ZM855.5 74.5C860.494 74.5 863.635 75.213 865.442 76.1166L870.808 65.3834C866.615 63.287 861.339 62.5 855.5 62.5V74.5ZM865.563 76.1755C867.839 77.2503 869.067 78.3967 869.728 79.4085L879.772 72.8415C877.6 69.52 874.411 67.083 870.687 65.3245L865.563 76.1755ZM869.788 79.4989C870.668 80.7924 871.138 82.1009 871.282 83.4924L883.218 82.2576C882.862 78.8158 881.665 75.6243 879.712 72.7511L869.788 79.4989ZM871.31 83.7235C871.614 85.8507 871.75 87.6424 871.75 89.125H883.75C883.75 86.941 883.552 84.5659 883.19 82.0265L871.31 83.7235ZM871.75 89.125V252H883.75V89.125H871.75Z" fill="white"/>
</g>
<defs>
<filter id="filter0_d" x="0.25" y="60" width="893.5" height="252.5" filterUnits="userSpaceOnUse" color-interpolation-filters="sRGB">
<feFlood flood-opacity="0" result="BackgroundImageFix"/>
<feColorMatrix in="SourceAlpha" type="matrix" values="0 0 0 0 0 0 0 0 0 0 0 0 0 0 0 0 0 0 127 0"/>
<feOffset dx="2.5" dy="5"/>
<feGaussianBlur stdDeviation="3.75"/>
<feColorMatrix type="matrix" values="0 0 0 0 0.0375 0 0 0 0 0.0375 0 0 0 0 0.0375 0 0 0 0.125 0"/>
<feBlend mode="normal" in2="BackgroundImageFix" result="effect1_dropShadow"/>
<feBlend mode="normal" in="SourceGraphic" in2="effect1_dropShadow" result="shape"/>
</filter>
</defs>
</svg>
